<?xml version="1.0" encoding="utf-8"?>
<svg xmlns="http://www.w3.org/2000/svg" viewBox="0 0 466 477" fill="rgba(99, 102, 241, 1)" preserveAspectRatio="xMidYMid meet">
<g transform="translate(0,-952.36218)">
	<path d="M78,1014.3v25.8c-8-2.2-16.5-2.5-23.8-2.5c-2.3,0.2-4.2,2.4-4.2,4.7v25.8c-8-2.2-16.5-2.5-23.8-2.5
		c-2.3,0.2-4.2,2.4-4.2,4.7v298.7c0,3.2,3.9,5.6,6.7,4.2c17.3-8.7,50.8-14.7,88.2-14.1c37.4,0.6,78.9,7.5,113,23.5
		c1.3,0.6,2.9,0.6,4.2-0.1c29.2-15.7,70.7-22.8,109.2-23.3s74.7,5.5,91.9,14.1c2.8,1.4,6.7-1.1,6.7-4.2v-298.7
		c0-2.4-2.2-4.7-4.7-4.7c-7.3,0-15.2,0-23.3,2.5v-25.8c0-2.4-2.2-4.7-4.7-4.7c-7.3,0-15.2,0-23.3,2.5v-25.8c0-2.4-2.2-4.7-4.7-4.7
		c-38.3,0-102,18.4-149.3,46.2c-47.3-27.8-111-46.2-149.3-46.2C78,1009.6,78,1014.3,78,1014.3L78,1014.3z M87.3,1019.4
		c35.9,1.3,96.1,18.6,140,44.3v251.4c-59.9-28.8-104.3-34.3-140-34.7L87.3,1019.4z M376.7,1019.4v261c-35.7,0.4-80.1,5.9-140,34.7
		v-251.4C280.6,1038,340.8,1020.6,376.7,1019.4z M59.3,1047.1c6.5,0.1,12.7,0.5,18.7,2.9v234.9c0,2.4,2.2,4.7,4.7,4.7
		c36.9,0,82.6,4.5,147.3,36.9c1.3,0.6,2.8,0.6,4.1,0c64.7-32.3,110.3-36.9,147.3-36.9c2.4,0,4.7-2.2,4.7-4.7V1050
		c6-2.4,12.1-2.8,18.7-2.9V1317c-40.2-8.2-113.6-2.9-172.8,28.1c-67.2-30.8-133.1-36.2-172.5-28.1V1047.1z M31.3,1075.1
		c6.5,0.1,12.7,0.5,18.7,2.9v244.3c0,2.8,3.1,5.2,5.8,4.5c35.6-8.9,105.1-4.5,174.1,27.7c1.3,0.6,2.9,0.6,4.2-0.1
		c59.3-31.9,138.5-36.4,174-27.6c2.7,0.7,5.8-1.7,5.8-4.5V1078c6-2.4,12.1-2.8,18.7-2.9v287.3c-20.9-8.4-53.4-13.2-89.2-12.7
		c-38.7,0.6-80.2,7.5-111.4,23.6c-35.4-16.1-77.2-23-114.9-23.6c-34.7-0.5-65.3,4.3-85.7,12.5L31.3,1075.1z"/>
</g>
</svg>
