<?xml version="1.0" encoding="UTF-8"?>
<svg version="1.1" viewBox="0 0 5333.3 5333.3" xml:space="preserve" xmlns="http://www.w3.org/2000/svg" xmlns:cc="http://creativecommons.org/ns#" xmlns:dc="http://purl.org/dc/elements/1.1/" xmlns:rdf="http://www.w3.org/1999/02/22-rdf-syntax-ns#"><metadata><rdf:RDF><cc:Work rdf:about=""><dc:format>image/svg+xml</dc:format><dc:type rdf:resource="http://purl.org/dc/dcmitype/StillImage"/></cc:Work></rdf:RDF></metadata><g transform="matrix(1.3333 0 0 -1.3333 0 5333.3)"><g transform="scale(.1)" fill-rule="evenodd"><path d="m4e4 0h-4e4v4e4h4e4v-4e4" fill="#fff"/><path d="m-4296.9 18929c-82.2 265.1 793.26 546.3 1559.4 811.5 1920.1 668.3 2702.2 1018.2 3201 1087.4 357.77-8.2 559.72-143.5 1354.8-498.7 705.49-315.4 3826.9-1466.4 4044.4-1649.4-498.72-363.3-4895.3-2315.1-4897.9-2315.1-347.73 111.2-464.14 334-1132.4 525.2-209.76 60.9-4031 1728.9-4129.2 2039.1" fill="#89ab76"/><path d="m1152.9 17632c-604.71-212-487.93-1445.2-114.17-1201.3 1174.8 760.9 3346.7 1485 4309.2 2094.9 26.78 18.6-344.75 281.2-42.39 779.9-904.1-233.5-3282.8-1535.6-4086.5-1662.8-29.01-5.5-7.81 10.5-66.2-10.7" fill="#fee3b4"/><path d="m-4145.6 19886c-374.13-164.4-416.53-904.1-68.8-1206.5 755.7-657.9 5170.9-2302.1 5179.1-2315.1-82.567 0-230.95 636.4 140.21 978.5 79.58 77-1338.8 760.9-1487.6 835.3-479.75 252.1-3463.2 1644.2-3762.9 1707.8" fill="#699c75"/><path d="m-4145.6 19886c1307.2 591.3 2858.8 1615.1 4290.6 1821.9 570.12-13.4 5142.3-2089.7 5468.4-2368.3-485.33-363.3-4508.6-1996.7-4508.6-1996.7-339.18 111.2-580.54 315.7-1232.9 506.5-204.18 58.4-3922.1 1729-4017.6 2036.6" fill="#89ab76"/><path d="m-3639 20199c-74.38 233.2 697.32 479.8 1370.8 713.3 1689.5 586.1 2376.1 896.3 2816.4 957.3 315.75-7.8 490.54-127.2 1190.8-437.7 622.93-278.2 3367.6-1291.3 3558.7-1453.1-437.73-320.9-4306.6-2036.5-4309.2-2036.5-304.96 97.8-408.34 294.2-997.06 461.2-182.98 53.1-3545.7 1522.2-3630.5 1795.5" fill="#c7928b"/><path d="m1152.9 19058c-530.33-188.2-429.54-1272.7-98.18-1058.1 1034.3 668.3 2943.6 1307.6 3792.3 1843.2 23.81 16-304.96 246.5-37.19 686.9-795.49-204.2-2890.8-1352.6-3595.9-1463.8-26.41-5.6-10.79 7.8-61-8.2" fill="#fee3b4"/><path d="m-3506.7 21042c-331.36-145.8-368.55-795.5-60.99-1063.3 663.1-578.3 4548-2026.1 4556.2-2036.5-71.778 0-201.57 559.3 121.99 861.7 71.4 66.2-1177.4 668.3-1307.2 734.5-421.74 220.2-3050 1445.2-3309.9 1503.6" fill="#c7928b"/><path d="m-3506.7 21042c201.58 212 679.1 480.1 1334 713.3 1644.2 588.7 2012.7 827.5 2439.7 888.5 501.32-13.4 4526.8-1838 4810.5-2084.5-424.34-320.6-3964.5-1755.4-3967.1-1755.4-297.16 98.2-509.14 275.9-1084.5 442.9-178.14 52.8-3450.5 1522.2-3532.7 1795.2" fill="#e4b2ab"/><path d="m-196.73 22514c100.41-74.4 251.78-138 389.76-135.4 201.2 5.2 432.15 119.4 439.96 172.2-206.78 95.6-352.56 116.8-416.16 111.6-111.57-10.8-206.78-53.2-413.55-148.4" fill="#face87"/><path d="m4496.7 20257c-397.56 308 90.37 583.5 106.37 570.5 259.95-135.4 527.73-228.3 474.54-268.1-87.39-66.2-363.35-233.2-580.91-302.4" fill="#face87"/><path d="m-1718.9 21146c92.6 37.2 1522.2 618.1 1707.8 750.5 127.19 93 429.55-23.8-18.598-206.8-326.16-132.8-1421.4-787.7-1737.2-734.5-76.98 10.4-45 156.6 47.98 190.8" fill="#c7928b"/><path d="m-804.04 21106c58.012 23.8 959.88 389.8 1076.3 474.9 82.196 58.4 273.35-16-10.41-130.1-206.78-84.8-898.89-495.8-1097.8-464.2-47.61 8.2-26.411 98.2 31.98 119.4" fill="#c7928b"/><path d="m1440.4 18671c162.15 95.9 652.69 264 1020.1 437.7 817.07-703.7 627.4-606.6 900-1586.5 117.15-421.4 219.79-560.9 447.02-640.5-211.23-124.9-394.58 55.1-486.07 60.7-62.1 3.7-41.28-53.2 164.76-347-451.86-54.3-737.11 277.8-798.11 589.1-116.03 592-183.34 782.8-386.77 982.9-354.05 348.8-857.98 421-860.96 503.6" fill="#b6c1d9"/><path d="m30786 4346.7c132.8-465.3 585-971.1 1292-611.1 185.6 94.5 690.7 666.5 430.3 1244l-1722.3-632.9" fill="#cad3e6"/><path d="m27783 4793.3c573.1 496.5 2364.2 1862.9 2566.2 947.2 122.7-555.6-128.7-507.6-123.5-385.2 55.4 1297.9-1875.9-286-2437.1-799.6-80.3-73.7-93.3 7-5.6 237.6" fill="#8e623f"/><path d="m28485 5546.4c-447.8 0-711.1-451.1-704.4-875.8 7.4-496.5 488.3-1301.3 1332.9-871 530.3 270 988.2 1746.8-628.5 1746.8zm-24.9 111.6c-501 0-795.9-505.1-788.5-980.4 8.6-555.6 546.7-1456.7 1492.1-975.1 593.6 302.4 1106 1955.5-703.6 1955.5" fill="#8e623f"/><path d="m27821 4410.6c132.8-465.6 585-971.4 1292-611 185.2 94.5 690.6 666.1 430.3 1243.6l-1722.3-632.6" fill="#cad3e6"/><path d="m31858 5496.6c447.4 0 710.7-451.1 704.4-875.8-7.9-496.2-488.7-1301.3-1333.3-871-530 270-988.2 1746.8 628.9 1746.8zm24.5 111.5c501.3 0 795.9-505 788.5-980.3-8.6-555.6-546.7-1456.4-1492.1-975.1-593.6 302.3-1106.1 1955.4 703.6 1955.4" fill="#8e623f"/><path d="m29688 4788.5c93.7 394.6 777.3 594.3 1018.7 77.7 73.6-158.1-9.7-280-56.9-147.6-90.8 254.3-341.4 342.1-509.5 299-209.4-53.6-406.2-374.9-428.1-356.7-1.1 0.8-24.2 127.6-24.2 127.6" fill="#8e623f"/><path d="m32652 4761.7c573.1 496.5 2363.8 1862.5 2565.7 946.9 122.7-555.7-128.7-507.7-123.5-385.3 55.8 1297.9-1875.5-286-2437-799.6-80.4-73.7-93 7.4-5.2 238" fill="#8e623f"/><path d="m5843.1 39138c132.77-465.3 585-971.1 1292-611 185.58 94.4 690.62 666.4 430.29 1244l-1722.3-633" fill="#cad3e6"/><path d="m2840 39584c573.1 496.5 2364.2 1862.9 2566.1 947.3 122.73-555.7-128.68-507.7-123.47-385.3 55.41 1297.9-1875.9-286-2437.1-799.6-80.33-73.6-93.35 7.1-5.58 237.6" fill="#8e623f"/><path d="m3542.2 40338c-447.77 0-711.08-451.1-704.38-875.8 7.43-496.5 488.3-1301.3 1332.9-871 530.34 270 988.14 1746.8-628.51 1746.8zm-24.92 111.6c-500.95 0-795.87-505-788.43-980.3 8.55-555.6 546.7-1456.8 1492.1-975.1 593.55 302.3 1106 1955.4-703.64 1955.4" fill="#8e623f"/><path d="m2878.7 39202c132.76-465.6 585-971.4 1292-611 185.21 94.5 690.62 666.1 430.29 1243.6l-1722.3-632.6" fill="#cad3e6"/><path d="m6915 40288c447.39 0 710.7-451.1 704.38-875.8-7.81-496.1-488.68-1301.3-1333.3-871-529.96 270-988.15 1746.8 628.89 1746.8zm24.54 111.6c501.33 0 795.87-505.1 788.43-980.4-8.55-555.6-546.69-1456.3-1492.1-975.1-593.55 302.4-1106 1955.5 703.64 1955.5" fill="#8e623f"/><path d="m4744.9 39580c93.72 394.6 777.27 594.3 1018.6 77.7 73.63-158-9.67-280-56.9-147.6-90.75 254.4-341.41 342.1-509.51 299-209.38-53.6-406.11-374.9-428.06-356.7-1.11 0.8-24.17 127.6-24.17 127.6" fill="#8e623f"/><path d="m7709.3 39553c573.1 496.5 2363.8 1862.5 2565.8 946.9 122.7-555.6-128.7-507.7-123.5-385.3 55.8 1297.9-1875.5-286-2437-799.6-80.34-73.6-92.98 7.4-5.21 238" fill="#8e623f"/><path d="m20304 22859c132.8-465.3 585-971.1 1292-611.1 185.6 94.5 690.6 666.5 430.3 1244l-1722.3-632.9" fill="#cad3e6"/><path d="m17301 23305c573.1 496.5 2364.2 1862.9 2566.1 947.2 122.7-555.6-128.7-507.6-123.5-385.2 55.5 1297.9-1875.8-286-2437-799.6-80.4-73.7-93.4 7-5.6 237.6" fill="#8e623f"/><path d="m18003 24058c-447.7 0-711-451.1-704.3-875.8 7.4-496.5 488.3-1301.3 1332.8-871 530.4 270 988.2 1746.8-628.5 1746.8zm-24.9 111.6c-500.9 0-795.9-505.1-788.4-980.4 8.5-555.6 546.7-1456.7 1492.1-975.1 593.5 302.4 1106 1955.5-703.7 1955.5" fill="#8e623f"/><path d="m17339 22922c132.7-465.6 585-971.4 1291.9-611 185.3 94.4 690.7 666.1 430.3 1243.6l-1722.2-632.6" fill="#cad3e6"/><path d="m21376 24008c447.4 0 710.7-451.1 704.4-875.9-7.8-496.1-488.7-1301.2-1333.3-870.9-529.9 270-988.1 1746.8 628.9 1746.8zm24.6 111.5c501.3 0 795.8-505 788.4-980.3-8.6-555.6-546.7-1456.4-1492.1-975.1-593.5 302.3-1106 1955.4 703.7 1955.4" fill="#8e623f"/><path d="m19206 23300c93.7 394.6 777.2 594.3 1018.6 77.7 73.6-158.1-9.7-280-56.9-147.6-90.7 254.3-341.4 342.1-509.5 299-209.4-53.6-406.1-374.9-428.1-356.7-1.1 0.8-24.1 127.6-24.1 127.6" fill="#8e623f"/><path d="m22170 23274c573.1 496.5 2363.8 1862.5 2565.7 946.9 122.8-555.7-128.6-507.7-123.4-385.3 55.8 1297.9-1875.5-286-2437.1-799.6-80.3-73.7-93 7.4-5.2 238" fill="#8e623f"/><path d="m35376 38898c64 206.5-617.7 425.3-1214.7 632.1-1495.5 520.3-2105 792.9-2493.5 846.8-278.7-6.1-435.8-111.5-1055.4-388.5-549.6-245.6-2981.1-1142.3-3150.3-1284.8 388.2-283 3813.4-1803.4 3815.4-1803.4 270.6 86.9 361.6 260.4 882.2 409 163.1 47.5 3139.8 1346.9 3216.3 1588.8" fill="#89ab76"/><path d="m31131 37888c471.1-165.4 380.1-1125.8 88.7-936.1-915.2 593.1-2607.1 1157.1-3356.8 1632.2-20.6 14.5 268.5 219.1 33 607.3 704.3-181.7 2557.5-1195.9 3183.3-1295.3 22.9-4.1 6.4 8.4 51.8-8.1" fill="#fee3b4"/><path d="m35258 39643c291.4-128.1 324.5-704.3 53.9-939.8-588.7-512.2-4028.4-1793-4034.5-1803.4 64.1 0 179.7 496-109.5 762.2-62 60 1043.3 593 1158.8 650.7 374.1 196.4 2698.1 1280.8 2931.3 1330.3" fill="#699c75"/><path d="m35258 39643c-1018.3 460.9-2226.7 1258.2-3342.3 1419.5-444.2-10.4-4005.5-1628.1-4259.6-1844.8 378.1-283 3511.8-1555.7 3511.8-1555.7 264.5 86.9 452.3 246 960.7 394.6 159 45.4 3055.2 1347.1 3129.4 1586.4" fill="#89ab76"/><path d="m34864 39887c57.9 181.7-543.2 374-1067.9 555.7-1315.8 456.6-1850.9 698.2-2193.6 745.7-246-6.1-382.4-99.1-927.6-340.7-485.6-217-2623.6-1006.2-2772.2-1132.2 340.7-250 3354.5-1586.4 3356.8-1586.4 237.5 76.5 318.1 229.2 776.7 359.5 142.5 41.2 2761.8 1185.8 2827.8 1398.4" fill="#85929c"/><path d="m31131 38999c413.2-146.6 334.6-991.7 76.2-824.2-805.3 520.6-2292.7 1018.3-2953.8 1435.8-18.5 12.1 237.6 192 29 534.8 619.6-159.1 2251.6-1053.4 2801.1-1140.3 20.6-4.1 8.1 6.4 47.5-6.1" fill="#fee3b4"/><path d="m34761 40544c258.1-113.9 287.1-620 47.5-828.6-516.6-450.2-3542.8-1578.3-3548.9-1586.4 55.6 0 156.7 435.7-95 671.2-56 51.9 917.2 520.6 1018.3 572.5 328.5 171.2 2375.6 1125.8 2578.1 1171.3" fill="#85929c"/><path d="m34761 40544c-157 165.1-528.7 373.7-1039.2 555.6-1280.8 458.6-1567.9 644.6-1900.5 692.1-390.2-10.4-3526.3-1431.7-3747.3-1623.8 330.5-250 3088.3-1367.7 3090.6-1367.7 231.1 76.5 396.6 215 844.7 345.1 138.5 41.4 2687.7 1185.7 2751.7 1398.7" fill="#b6c1d9"/><path d="m28526 39932c310 239.6-70.1 454.6-82.6 444.1-202.5-105.4-411.1-177.6-369.9-208.6 68.1-51.8 283-181.9 452.5-235.5" fill="#face87"/><path d="m31066 38424c-126.3 54.2-426.8 190.1-712.7 288.3-636.8-397.5-570.7-383.6-783.1-937.2-91.2-237.9-171.2-316.7-348.2-361.6 164.6-70.7 307.4 31 378.6 34.2 48.4 2 32.2-30.1-128.3-195.9 352-30.9 574.2 156.8 621.7 332.6 90.4 334.4 142.8 442.1 301.3 555.4 275.8 196.7 668.4 237.6 670.7 284.2" fill="#b6c1d9"/><path d="m32027 41325c955.4-219 1141.4-872.8 808.9-1218.2-351.2-365-1265.2-403.5-1839.7 93-498.6 431.4-256.4 1419.9 1030.8 1125.2" fill="#cad3e6"/><path d="m28707 38409c-169.8-144.5-193-265.3-334.9-619.3-94.8-236.4-175.9-314.1-353.5-356.7 163.4-73 307.7 26.7 379 28.7 48.4 1.2 31.8-30.4-131.3-194.1 351.4-35.9 576.5 148.3 626.7 323.3 95.6 333.2 149.5 440.1 309.7 550.8 16.8 11.5 33.9 22.5 51.2 33.3l-546.9 234" fill="#85929c"/><path d="m31482 38943c-105.8-62-230-99.4-307.4-152.7-127.8 57.7-108.4 29.8-391.1 165.4 114.4 343.9 843.3 113.6 698.5-12.7" fill="#face87"/><path d="m12634 9821.6c64 206.5-617.7 425.3-1214.8 632.1-1495.4 520.3-2105 793-2493.5 846.8-278.7-6-435.72-111.5-1055.4-388.5-549.57-245.6-2981.1-1142.3-3150.3-1284.8 388.21-283 3813.4-1803.4 3815.4-1803.4 270.59 86.9 361.56 260.4 882.16 409 163.1 47.6 3139.8 1346.9 3216.3 1588.8" fill="#89ab76"/><path d="m8389.3 8811.4c471.06-165.4 380.09-1125.8 88.65-936-915.18 593-2607.1 1157-3356.8 1632.1-20.56 14.5 268.56 219.1 33.03 607.3 704.27-181.7 2557.5-1195.9 3183.3-1295.3 22.88-4.1 6.37 8.4 51.85-8.1" fill="#fee3b4"/><path d="m12516 10567c291.4-128 324.4-704.3 53.8-939.8-588.6-512.2-4028.3-1793-4034.4-1803.4 64.03 0 179.62 496-109.5 762.2-62 60 1043.2 593 1158.8 650.7 374.02 196.4 2698 1280.8 2931.3 1330.3" fill="#699c75"/><path d="m12516 10567c-1018.4 460.9-2226.7 1258.2-3342.4 1419.6-444.13-10.5-4005.5-1628.2-4259.6-1844.9 378.07-283 3511.8-1555.7 3511.8-1555.7 264.49 86.9 452.22 246 960.66 394.6 159.05 45.5 3055.2 1347.1 3129.4 1586.4" fill="#89ab76"/><path d="m12122 10811c57.9 181.7-543.2 374-1067.9 555.7-1315.8 456.6-1850.9 698.2-2193.6 745.7-245.96-6.1-382.41-99.1-927.64-340.7-485.54-217-2623.6-1006.2-2772.2-1132.2 340.7-250 3354.5-1586.4 3356.8-1586.4 237.56 76.5 318.1 229.2 776.7 359.5 142.54 41.2 2761.7 1185.8 2827.8 1398.4" fill="#85929c"/><path d="m8389.3 9922.7c413.12-146.6 334.61-991.7 76.19-824.2-805.38 520.6-2292.7 1018.3-2953.8 1435.8-18.54 12.1 237.55 192 28.97 534.8 619.68-159.1 2251.6-1053.4 2801.2-1140.3 20.57-4.1 8.11 6.4 47.51-6.1" fill="#fee3b4"/><path d="m12019 11468c258.2-113.9 287.1-620 47.6-828.6-516.6-450.2-3542.8-1578.3-3548.9-1586.4 55.62 0 156.73 435.7-95.02 671.2-55.91 51.9 917.21 520.6 1018.3 572.5 328.53 171.2 2375.6 1125.8 2578 1171.3" fill="#85929c"/><path d="m12019 11468c-157 165.1-528.7 373.7-1039.1 555.6-1280.8 458.6-1567.9 644.6-1900.5 692.1-390.23-10.4-3526.3-1431.7-3747.3-1623.8 330.55-250 3088.3-1367.7 3090.6-1367.7 231.19 76.5 396.61 215 844.78 345.1 138.48 41.4 2687.6 1185.7 2751.6 1398.7" fill="#b6c1d9"/><path d="m9440.6 12614c-78.51-57.9-196.13-107.4-303.61-105.4-157.02 4.3-336.93 93-343.01 134.4 161.08 74.5 274.64 91 324.47 86.6 86.62-8.1 161.08-41.1 322.15-115.6" fill="#face87"/><path d="m5784.3 10856c309.99 239.6-70.11 454.6-82.57 444.1-202.5-105.4-411.09-177.6-369.95-208.6 68.08-51.8 283.04-181.9 452.52-235.5" fill="#face87"/><path d="m8323.6 9348.2c-126.31 54.2-426.74 190.1-712.68 288.3-636.77-397.5-570.71-383.6-783.07-937.2-91.26-237.9-171.22-316.7-348.22-361.6 164.55-70.7 307.37 31 378.64 34.2 48.38 2 32.16-30.1-128.34-195.8 351.99-31 574.2 156.7 621.71 332.5 90.39 334.4 142.82 442.1 301.29 555.4 275.8 196.7 668.35 237.6 670.67 284.2" fill="#b6c1d9"/><path d="m9285.4 12249c955.43-219 1141.4-872.8 808.83-1218.2-351.09-365-1265.1-403.5-1839.6 93-498.58 431.4-256.39 1419.9 1030.8 1125.2" fill="#cad3e6"/><path d="m5965.4 9332.9c-169.77-144.6-192.95-265.4-334.9-619.4-94.74-236.4-175.86-314.1-353.44-356.7 163.39-73 307.66 26.7 378.93 28.7 48.38 1.2 31.87-30.4-131.24-194.1 351.42-35.9 576.52 148.3 626.64 323.3 95.6 333.2 149.49 440.1 309.69 550.8 16.81 11.6 33.9 22.6 51.28 33.3l-546.96 234.1" fill="#85929c"/><path d="m8740.2 9866.8c-105.75-62-230.03-99.4-307.38-152.7-127.76 57.7-108.35 29.8-391.1 165.4 114.43 343.9 843.33 113.6 698.48-12.7" fill="#face87"/><path d="m11656 11207c144.9 85.2 344.5 168.4 362.4 260.8-104 93.8-159 150.3-414.5 286.2-269.2-242.5-95.3-628.4 52.1-547" fill="#face87"/><path d="m17140 31457c64 206.6-617.7 425.3-1214.8 632.1-1495.4 520.4-2105 793-2493.5 846.8-278.7-6-435.7-111.5-1055.4-388.4-549.5-245.7-2981-1142.4-3150.2-1284.9 388.2-283 3813.4-1803.4 3815.4-1803.4 270.6 86.9 361.6 260.4 882.2 409.1 163.1 47.5 3139.8 1346.8 3216.3 1588.7" fill="#89ab76"/><path d="m12895 30447c471.1-165.4 380.1-1125.8 88.7-936-915.2 593-2607.1 1157-3356.8 1632.2-20.57 14.4 268.56 219 33.03 607.2 704.32-181.7 2557.5-1195.9 3183.3-1295.3 22.9-4 6.3 8.4 51.8-8.1" fill="#fee3b4"/><path d="m17023 32202c291.4-128 324.4-704.3 53.9-939.8-588.7-512.2-4028.4-1793-4034.5-1803.4 64 0 179.6 496-109.5 762.2-62 60 1043.2 593 1158.8 650.7 374 196.4 2698.1 1280.8 2931.3 1330.3" fill="#699c75"/><path d="m17023 32202c-1018.4 460.9-2226.7 1258.2-3342.4 1419.6-444.1-10.5-4005.4-1628.2-4259.5-1844.9 378.06-283 3511.8-1555.7 3511.8-1555.7 264.5 86.9 452.2 246 960.7 394.6 159 45.5 3055.2 1347.1 3129.4 1586.4" fill="#89ab76"/><path d="m16628 32446c57.9 181.6-543.2 374-1067.9 555.6-1315.8 456.6-1850.9 698.2-2193.6 745.7-246-6.1-382.4-99.1-927.7-340.7-485.5-217-2623.5-1006.1-2772.2-1132.2 340.65-250 3354.6-1586.4 3356.8-1586.4 237.5 76.5 318.1 229.2 776.7 359.5 142.5 41.2 2761.7 1185.8 2827.8 1398.5" fill="#85929c"/><path d="m12895 31558c413.1-146.6 334.6-991.7 76.2-824.2-805.4 520.6-2292.7 1018.3-2953.8 1435.8-18.57 12.1 237.5 192.1 28.9 534.8 619.7-159.1 2251.6-1053.4 2801.2-1140.3 20.6-4.1 8.1 6.4 47.5-6.1" fill="#fee3b4"/><path d="m16525 33103c258.2-113.9 287.1-620 47.6-828.6-516.6-450.2-3542.8-1578.3-3548.9-1586.4 55.6 0 156.7 435.7-95.1 671.3-55.9 51.8 917.3 520.6 1018.4 572.4 328.5 171.2 2375.5 1125.8 2578 1171.3" fill="#85929c"/><path d="m16525 33103c-157 165.1-528.7 373.7-1039.1 555.6-1280.8 458.7-1567.9 644.6-1900.5 692.2-390.2-10.5-3526.3-1431.8-3747.3-1623.8 330.53-250.1 3088.2-1367.7 3090.5-1367.7 231.2 76.4 396.7 214.9 844.8 345 138.5 41.4 2687.6 1185.8 2751.6 1398.7" fill="#b6c1d9"/><path d="m13947 34250c-78.6-58-196.2-107.5-303.7-105.5-157 4.4-336.9 93-343 134.4 161.1 74.5 274.7 91 324.5 86.7 86.6-8.2 161.1-41.2 322.2-115.6" fill="#face87"/><path d="m10290 32492c310 239.6-70.1 454.6-82.6 444.1-202.5-105.4-411.07-177.5-369.93-208.5 68.08-51.9 283.03-182 452.53-235.6" fill="#face87"/><path d="m12830 30984c-126.4 54.2-426.8 190.1-712.7 288.3-636.8-397.5-570.7-383.6-783.1-937.2-91.3-237.9-171.2-316.7-348.2-361.6 164.5-70.7 307.4 31 378.6 34.2 48.4 2 32.2-30.1-128.3-195.8 352-31 574.2 156.7 621.7 332.6 90.4 334.3 142.8 442 301.3 555.3 275.8 196.7 668.3 237.6 670.7 284.2" fill="#b6c1d9"/><path d="m13792 33884c955.4-219.1 1141.4-872.9 808.8-1218.3-351.1-365-1265.1-403.5-1839.6 93-498.6 431.4-256.4 1419.9 1030.8 1125.3" fill="#cad3e6"/><path d="m10472 30968c-169.8-144.6-193-265.4-334.9-619.4-94.8-236.4-175.9-314.1-353.49-356.7 163.39-73 307.69 26.7 378.89 28.7 48.4 1.2 31.9-30.4-131.2-194.1 351.4-35.9 576.5 148.4 626.6 323.3 95.6 333.2 149.5 440.1 309.7 550.8 16.8 11.6 33.9 22.6 51.3 33.3l-546.9 234.1" fill="#85929c"/><path d="m13246 31502c-105.8-62-230.1-99.4-307.4-152.7-127.8 57.7-108.4 29.9-391.1 165.4 114.4 343.9 843.3 113.6 698.5-12.7" fill="#face87"/><path d="m16162 32843c144.9 85.1 344.5 168.3 362.4 260.7-104 93.9-159 150.3-414.5 286.2-269.2-242.5-95.3-628.3 52.1-546.9" fill="#face87"/><path d="m17219 37600c744.5 289.3 2938.7 1505.8 3679.9 1859.9 766.9 366.3 2877.4 503.9 3015.4 605.8-3.3 40.5-4339.3 3607.8-4344.9 3606.7-1348.9-215.3-5302.6-1691.8-6276.6-2445.6-70.6-386.4 3493.7-3101.7 3926.2-3626.8" fill="#8e623f"/><path d="m20671 39571c-1100.4 163.6-2218-986.7-3235.1-1620.8 0 0-3836.2 3412.2-3718.3 3430.4 10.4 1.9 572.4 300.9 729.3 348.1 667.2 199.4 1093.8 751.3 1736 972.6 1254.5 432.5 2774.8 865.4 4140.4 775.8 19.7-1.2-0.7-136.5 75.5-250.3 1019-1518.1 2921.7-2521.2 3240.4-3076-437.7 7.4-1840.9 259.2-2453.1-155.1-265.9-180-93.7-323.2-274.8-386.4-49.8-17.5-124.6-30.2-240.3-38.3" fill="#f2cd91"/><path d="m17365 43333c-2069.6 345.5-1291.2-452.2-3172.7-1401-287.8-145-611.7-15.6 274.5-767.6 637.4-540.7 2360.8-2280.8 2712.3-2852.4 166.2-270 1488 1728.9 2246.3 1833.1 549.3 75.1 595-144 1315.8-130.6 17.8 0.4-2668.1 2748.4-3376.2 3318.5" fill="#f7d59e"/><path d="m20671 39571c-20 232 239.9 285.6 350.4 218.6-0.4-144.6-93.7-174-107.5-182.2-46.9-28.3-121.3-24.2-242.9-36.4" fill="#dbb070"/><path d="m15808 40238c422.1 169.6 1082.2 649 1531.1 1149.2 715.5 797.3 1438.5 322.8 1432.2 323.9-209.4 37.6-541.1 66.2-786.6-25.3-297.5-110.8-589.1-308.7-756.1-554.1-336.9-495.4-1241.7-1158.5-1420.6-893.7" fill="#dbb070"/><path d="m16272 39840c422.1 169.2 1082.6 648.6 1531.1 1148.8 715.6 797.7 1438.6 322.8 1432.2 323.9-209 37.6-540.7 66.6-786.5-24.9-297.2-110.8-589.1-308.7-756.1-554.5-336.6-495-1241.4-1158.1-1420.7-893.3" fill="#dbb070"/><path d="m16688 39488c422.1 169.6 1082.2 649 1531.1 1149.2 715.5 797.4 1438.5 322.4 1432.2 323.9-209.4 37.2-541.1 66.2-786.6-25.3-297.1-110.8-589.1-308.6-756.1-554.5-336.9-495-1241.4-1158.1-1420.6-893.3" fill="#dbb070"/><path d="m17027 39045c422.2 169.6 1082.7 648.9 1531.2 1149.1 715.5 797.8 1438.5 322.9 1432.2 324-209 37.5-541.2 66.5-786.6-25.3-297.2-110.8-589.1-308.7-756.1-554.2-336.9-495.3-1241.4-1158-1420.7-893.6" fill="#dbb070"/><path d="m30037 23889c744.5 289.3 2938.7 1505.8 3679.9 1859.9 766.9 366.3 2877.4 503.9 3015.4 605.8-3.3 40.5-4339.3 3607.8-4344.9 3606.7-1348.9-215.3-5302.6-1691.8-6276.6-2445.6-70.7-386.4 3493.7-3101.7 3926.2-3626.8" fill="#8e623f"/><path d="m33490 25860c-1100.4 163.6-2218-986.7-3235.1-1620.8 0 0-3836.2 3412.2-3718.3 3430.4 10.4 1.9 572.4 300.9 729.3 348.1 667.2 199.4 1093.8 751.3 1736 972.6 1254.5 432.5 2774.8 865.4 4140.4 775.8 19.7-1.2-0.7-136.5 75.5-250.3 1019-1518.1 2921.7-2521.2 3240.4-3076-437.7 7.4-1840.9 259.2-2453.1-155.1-265.9-180-93.7-323.2-274.8-386.4-49.8-17.5-124.6-30.1-240.3-38.3" fill="#f2cd91"/><path d="m30184 29623c-2069.6 345.5-1291.2-452.2-3172.7-1401-287.8-145-611.7-15.6 274.5-767.6 637.4-540.7 2360.8-2280.8 2712.3-2852.4 166.2-270 1488 1728.9 2246.3 1833.1 549.3 75.1 595-144 1315.8-130.6 17.8 0.4-2668.1 2748.4-3376.2 3318.5" fill="#f7d59e"/><path d="m30184 29623c1359.3 1482 2829.1 98.2 3231.9 63.6 1257.4-1360 3136.6-2647.9 3194.2-3086 37.6-284.6-2216.1 947.6-3049.9-296.1-9.7-14.5-2893.4 2648.3-3376.2 3318.5" fill="#fcdca9"/><path d="m33490 25860c-20 232 239.9 285.6 350.4 218.7-0.4-144.7-93.8-174.1-107.5-182.3-46.9-28.2-121.3-24.2-242.9-36.4" fill="#dbb070"/><path d="m27494 27764c422.1 169.2 1082.6 648.6 1531.2 1148.8 715.5 797.7 1438.5 322.8 1432.2 323.9-209.1 37.6-540.8 66.6-786.6-24.9-297.2-110.9-588.7-308.7-756.1-554.5-336.6-495-1241.4-1158.1-1420.7-893.3" fill="#dbb070"/><path d="m27875 27395c421.7 169.2 1082.2 648.6 1531.1 1148.8 715.2 797.7 1438.1 322.8 1431.8 323.9-209 37.6-540.7 66.6-786.6-24.9-297.1-110.8-588.7-308.7-755.7-554.5-336.9-495-1241.7-1158.1-1420.6-893.3" fill="#dbb070"/><path d="m28259 26955c422.2 169.5 1082.6 648.5 1531.2 1149.1 715.5 797.4 1438.5 322.5 1432.2 324-209.1 37.1-541.2 66.2-786.6-25.3-297.2-110.9-589.1-308.7-756.1-554.5-336.9-495-1241.4-1158.1-1420.7-893.3" fill="#dbb070"/><path d="m28626 26527c422.1 169.6 1082.2 649 1531.1 1149.2 715.5 797.3 1438.5 322.8 1432.2 323.9-209.4 37.6-541.1 66.2-786.6-25.3-297.5-110.8-589.1-308.7-756.1-554.1-336.9-495.4-1241.7-1158.5-1420.6-893.7" fill="#dbb070"/><path d="m29090 26130c422.1 169.2 1082.6 648.6 1531.1 1148.8 715.6 797.7 1438.5 322.8 1432.2 323.9-209 37.6-540.7 66.6-786.5-24.9-297.2-110.8-589.1-308.7-756.1-554.5-336.6-495-1241.4-1158.1-1420.7-893.3" fill="#dbb070"/><path d="m29507 25778c422.1 169.6 1082.2 649 1531.1 1149.2 715.5 797.4 1438.5 322.5 1432.2 323.9-209.4 37.2-541.1 66.2-786.6-25.2-297.1-110.9-589.1-308.7-756.1-554.6-336.9-495-1241.4-1158.1-1420.6-893.3" fill="#dbb070"/><path d="m29846 25335c422.1 169.6 1082.7 648.9 1531.2 1149.2 715.5 797.7 1438.5 322.8 1432.2 323.9-209.1 37.5-541.2 66.5-786.6-25.3-297.2-110.8-589.1-308.7-756.1-554.1-336.9-495.4-1241.4-1158.1-1420.7-893.7" fill="#dbb070"/><path d="m35813 27275c-431.7-1.5-739.7 48.3-1183.4 158.8-1071 265.9-1411.3-505.4-1406.5-501 156.2 142.1 421.8 342.6 683.9 399.1 317.3 68.8 664.6 21.6 964.8-46.9 119-26.7 941.2-119.7 941.2-10" fill="#dbb070"/><path d="m35228 27748c-413.9-37.2-701.8 38.7-1138.8 107.1-1054.3 166.2-1302.4-601.8-1298.3-597.3 135.4 149.1 370 363.4 615.5 439.6 297.5 92.2 635.2 75.9 930.1 35.3 117.2-16 902.6-89.6 891.5 15.3" fill="#dbb070"/><path d="m33729 28253c-1054.4 166.2-1302.4-601.8-1298.3-597.3 135.3 149.1 370 363.4 615.5 439.6 297.5 92.2 635.2 75.9 930.1 35.3 513.6-70.3 447-20.8 804.4 16.4-0.4 3.7-913.8 84.4-1051.7 106" fill="#dbb070"/><path d="m34326 28627c-413.9-37.2-560.8-8.9-997.8 59.9-1054.3 165.9-1302.4-602.1-1298.3-597.3 135.4 149.2 370 363.4 615.5 439.6 297.5 92.2 635.2 75.9 930.1 35.3 116.8-15.9 761.7-42.4 750.5 62.5" fill="#dbb070"/><path d="m32900 29077c-1054.7 165.9-1302.8-602.1-1298.7-597.6 135.7 149.1 370 363.7 615.9 439.9 297.1 92.3 635.2 75.5 930.1 35.4 513.2-70.3 534-22.4 891.1 14.8 0 1.9-287.1-12.2-554.9 11.6-267 23.4-514.7 85.1-583.5 95.9" fill="#dbb070"/><path d="m33643 29350c-413.9-37.2-692.5 39.4-1129.5 108.2-1054.3 165.8-1302.4-602.1-1298.3-597.7 135.4 149.2 370.1 363.8 615.5 440 297.5 91.9 635.2 75.5 930.1 35.3 501.7-68.8 380.1-79.2 882.2 14.2" fill="#dbb070"/><path d="m31962 29862c-1054.4 165.9-1302.4-602.1-1298.3-597.6 135.3 149.1 370 363.7 615.8 439.6 297.2 92.2 634.9 75.8 929.8 35.7 513.6-70.7 556-85.9 855.4-32.7-114.2 2.9-946.2 130.1-1102.7 155" fill="#dbb070"/><path d="m2840-415.5c573.1 496.5 2364.2 1862.9 2566.1 947.3 122.73-555.7-128.68-507.7-123.47-385.3 55.41 1297.9-1875.9-286-2437.1-799.6-80.33-73.597-93.35 7.102-5.58 237.6" fill="#8e623f"/><path d="m3542.2 337.6c-447.77 0-711.08-451.1-704.38-875.8 7.43-496.5 488.3-1301.3 1332.9-871 530.34 270 988.14 1746.8-628.51 1746.8zm-24.92 111.6c-500.95 0-795.87-505-788.43-980.3 8.55-555.6 546.7-1456.8 1492.1-975.2 593.55 302.4 1106 1955.5-703.64 1955.5" fill="#8e623f"/><path d="m6915 287.8c447.39 0 710.7-451.1 704.38-875.8-7.81-496.2-488.68-1301.3-1333.3-871-529.96 270-988.15 1746.8 628.89 1746.8zm24.54 111.6c501.33 0 795.87-505.1 788.43-980.4-8.55-555.6-546.69-1456.3-1492.1-975.1-593.55 302.4-1106 1955.5 703.64 1955.5" fill="#8e623f"/><path d="m4744.9-420.3c93.72 394.6 777.27 594.3 1018.6 77.699 73.63-158-9.67-280-56.9-147.6-90.75 254.4-341.41 342.1-509.51 299-209.38-53.598-406.11-374.9-428.06-356.7-1.11 0.796-24.17 127.6-24.17 127.6" fill="#8e623f"/><path d="m7709.3-447.1c573.1 496.5 2363.8 1862.5 2565.8 946.9 122.7-555.6-128.7-507.7-123.5-385.3 55.8 1297.9-1875.5-286-2437-799.6-80.34-73.601-92.98 7.403-5.21 238" fill="#8e623f"/><path d="m35376-1102.3c64 206.5-617.7 425.3-1214.7 632.1-1495.5 520.3-2105 792.9-2493.5 846.8-278.7-6.098-435.8-111.5-1055.4-388.5-549.6-245.6-2981.1-1142.3-3150.3-1284.8 388.2-283.1 3813.4-1803.4 3815.4-1803.4 270.6 86.9 361.6 260.4 882.2 409 163.1 47.5 3139.8 1346.9 3216.3 1588.8" fill="#89ab76"/><path d="m35258-356.9c-1018.3 460.9-2226.7 1258.2-3342.3 1419.6-444.2-10.5-4005.5-1628.2-4259.6-1844.9 378.1-283 3511.8-1555.7 3511.8-1555.7 264.5 86.9 452.3 245.9 960.7 394.6 159 45.4 3055.2 1347.1 3129.4 1586.4" fill="#89ab76"/><path d="m34864-113c57.9 181.7-543.2 374-1067.9 555.7-1315.8 456.6-1850.9 698.2-2193.6 745.7-246-6.1-382.4-99.1-927.6-340.7-485.6-217-2623.6-1006.2-2772.2-1132.2 340.7-250 3354.5-1586.4 3356.8-1586.4 237.5 76.5 318.1 229.2 776.7 359.5 142.5 41.2 2761.8 1185.8 2827.8 1398.4" fill="#85929c"/><path d="m31131-1001.2c413.2-146.6 334.6-991.7 76.2-824.2-805.3 520.6-2292.7 1018.3-2953.8 1435.8-18.5 12.102 237.6 192 29 534.8 619.6-159.1 2251.6-1053.4 2801.1-1140.3 20.6-4.101 8.1 6.301 47.5-6.102" fill="#fee3b4"/><path d="m34761 544.1c258.1-113.9 287.1-620 47.5-828.6-516.6-450.2-3542.8-1578.3-3548.9-1586.4 55.6 0 156.7 435.7-95 671.2-56 51.9 917.2 520.6 1018.3 572.5 328.5 171.2 2375.6 1125.8 2578.1 1171.3" fill="#85929c"/><path d="m34761 544.1c-157 165.1-528.7 373.7-1039.2 555.6-1280.8 458.6-1567.9 644.6-1900.5 692.1-390.2-10.4-3526.3-1431.7-3747.3-1623.8 330.5-250 3088.3-1367.7 3090.6-1367.7 231.1 76.5 396.6 215 844.7 345.1 138.5 41.403 2687.7 1185.7 2751.7 1398.7" fill="#b6c1d9"/><path d="m32183 1690.4c-78.5-57.9-196.1-107.4-303.6-105.4-157 4.3-337 93-343 134.4 161 74.5 274.6 91 324.4 86.6 86.7-8.1 161.1-41.1 322.2-115.6" fill="#face87"/><path d="m28526-67.5c310 239.6-70.1 454.6-82.6 444.1-202.5-105.4-411.1-177.6-369.9-208.6 68.1-51.797 283-181.9 452.5-235.5" fill="#face87"/><path d="m32027 1324.8c955.4-219 1141.4-872.8 808.9-1218.2-351.2-365-1265.2-403.5-1839.7 93.004-498.6 431.4-256.4 1419.9 1030.8 1125.2" fill="#cad3e6"/><path d="m34398 283.3c144.8 85.199 344.4 168.4 362.4 260.8-104 93.8-159.1 150.3-414.6 286.2-269.1-242.5-95.3-628.4 52.2-547" fill="#face87"/><path d="m17219-2400.3c744.5 289.3 2938.7 1505.8 3679.9 1859.9 766.9 366.3 2877.4 503.9 3015.4 605.8-3.3 40.504-4339.3 3607.8-4344.9 3606.7-1348.9-215.3-5302.6-1691.8-6276.6-2445.6-70.6-386.4 3493.7-3101.7 3926.2-3626.8" fill="#8e623f"/><path d="m20671-429.2c-1100.4 163.6-2218-986.7-3235.1-1620.8 0 0-3836.2 3412.2-3718.3 3430.4 10.4 1.9 572.4 300.9 729.3 348.1 667.2 199.4 1093.8 751.3 1736 972.6 1254.5 432.5 2774.8 865.4 4140.4 775.7 19.7-1.1-0.7-136.4 75.5-250.2 1019-1518.1 2921.7-2521.2 3240.4-3076-437.7 7.398-1840.9 259.2-2453.1-155.1-265.9-180-93.7-323.2-274.8-386.4-49.8-17.5-124.6-30.2-240.3-38.297" fill="#f2cd91"/><path d="m17365 3333.3c-2069.6 345.5-1291.2-452.2-3172.7-1401-287.8-145-611.7-15.6 274.5-767.6 637.4-540.7 2360.8-2280.8 2712.3-2852.4 166.2-270.1 1488 1728.9 2246.3 1833.1 549.3 75.102 595-144 1315.8-130.6 17.8 0.3984-2668.1 2748.4-3376.2 3318.5" fill="#f7d59e"/><path d="m17365 3333.3c1359.3 1482 2829.1 98.2 3231.9 63.6 1257.4-1360.1 3136.6-2647.9 3194.2-3086.1 37.6-284.5-2216.1 947.7-3049.9-296-9.7-14.5-2893.4 2648.3-3376.2 3318.5" fill="#fcdca9"/><path d="m14675 1474.2c422.1 169.2 1082.6 648.6 1531.2 1148.8 715.5 797.7 1438.5 322.8 1432.2 323.9-209.1 37.6-540.8 66.6-786.6-24.9-297.2-110.9-588.7-308.7-756.1-554.5-336.6-495-1241.4-1158.1-1420.7-893.3" fill="#dbb070"/><path d="m15056 1105.6c421.7 169.2 1082.2 648.6 1531.1 1148.8 715.2 797.7 1438.1 322.8 1431.8 323.9-209 37.6-540.7 66.6-786.6-24.9-297.1-110.8-588.7-308.7-755.7-554.5-336.9-495-1241.7-1158.1-1420.6-893.3" fill="#dbb070"/><path d="m15440 665.6c422.2 169.6 1082.6 648.6 1531.2 1149.2 715.5 797.4 1438.5 322.5 1432.2 323.9-209.1 37.2-541.2 66.3-786.6-25.2-297.2-110.9-589.1-308.7-756.1-554.5-336.9-495-1241.4-1158.2-1420.7-893.4" fill="#dbb070"/><path d="m15808 237.6c422.1 169.6 1082.2 649 1531.1 1149.2 715.5 797.3 1438.5 322.8 1432.2 323.9-209.4 37.6-541.1 66.2-786.6-25.3-297.5-110.8-589.1-308.7-756.1-554.1-336.9-495.4-1241.7-1158.5-1420.6-893.7" fill="#dbb070"/><path d="m16272-159.6c422.1 169.2 1082.6 648.6 1531.1 1148.8 715.6 797.7 1438.6 322.8 1432.2 323.9-209 37.6-540.7 66.6-786.5-24.9-297.2-110.8-589.1-308.7-756.1-554.5-336.6-495-1241.4-1158.1-1420.7-893.3" fill="#dbb070"/><path d="m16688-512.2c422.1 169.6 1082.2 649 1531.1 1149.2 715.5 797.4 1438.5 322.4 1432.2 323.9-209.4 37.2-541.1 66.198-786.6-25.3-297.1-110.8-589.1-308.6-756.1-554.5-336.9-495-1241.4-1158.1-1420.6-893.3" fill="#dbb070"/><path d="m17027-954.7c422.2 169.6 1082.7 648.9 1531.2 1149.1 715.5 797.8 1438.5 322.9 1432.2 324-209 37.5-541.2 66.496-786.6-25.3-297.2-110.8-589.1-308.7-756.1-554.2-336.9-495.3-1241.4-1158.1-1420.7-893.6" fill="#dbb070"/><path d="m22994 985.5c-431.7-1.5-739.7 48.3-1183.4 158.8-1071 265.9-1411.3-505.4-1406.5-501 156.2 142.1 421.8 342.5 683.9 399.1 317.3 68.8 664.6 21.6 964.8-46.9 119-26.797 941.2-119.7 941.2-10" fill="#dbb070"/><path d="m22410 1458.2c-413.9-37.2-701.8 38.6-1138.8 107.1-1054.3 166.2-1302.4-601.8-1298.3-597.3 135.4 149.1 370 363.3 615.5 439.6 297.5 92.2 635.2 75.9 930.1 35.3 117.2-16 902.6-89.6 891.5 15.3" fill="#dbb070"/><path d="m20910 1963.6c-1054.4 166.2-1302.4-601.8-1298.3-597.3 135.3 149.1 370 363.4 615.5 439.6 297.5 92.2 635.2 75.9 930.1 35.3 513.6-70.3 447-20.8 804.4 16.4-0.4 3.7-913.8 84.4-1051.7 106" fill="#dbb070"/><path d="m21508 2337.7c-413.9-37.2-560.8-8.9-997.8 59.9-1054.3 165.9-1302.4-602.1-1298.3-597.3 135.4 149.2 370 363.4 615.5 439.6 297.5 92.2 635.2 75.9 930.1 35.3 116.8-16 761.7-42.4 750.5 62.5" fill="#dbb070"/><path d="m20082 2787.7c-1054.7 165.9-1302.8-602.1-1298.7-597.6 135.7 149.1 370 363.7 615.9 439.9 297.1 92.3 635.2 75.5 930.1 35.4 513.2-70.3 534-22.4 891.1 14.8 0 1.9-287.1-12.2-554.9 11.6-267 23.4-514.7 85.1-583.5 95.9" fill="#dbb070"/><path d="m20824 3060c-413.9-37.2-692.5 39.4-1129.5 108.2-1054.3 165.8-1302.4-602.1-1298.3-597.7 135.4 149.2 370.1 363.7 615.5 440 297.5 91.8 635.2 75.5 930.1 35.3 501.7-68.8 380.1-79.2 882.2 14.2" fill="#dbb070"/><path d="m19143 3572.4c-1054.4 165.9-1302.4-602.1-1298.3-597.6 135.3 149.1 370 363.7 615.8 439.6 297.2 92.2 634.9 75.8 929.8 35.7 513.6-70.7 556-85.9 855.4-32.8-114.2 3-946.2 130.2-1102.7 155.1" fill="#dbb070"/><path d="m701.66 8211.9c-363.78-725.6-1131.1-829-1916.3-644.1-135.17 31.8-989.95 540.7-1437.2 604.3 248.49 250.5 1145 584.4 1928.2 526.8 781.24-57.7 1484.9-371.8 1425.3-487" fill="#ffedc3"/><path d="m663.89 7927.6c-288.24-723.6-1097.3-1011.8-1719.5-828.9-709.67 210.7-1202.7 540.6-1196.7 749.4 9.94 322 908.45 397.6 1612.2 371.7 771.29-25.8 1351.8-172.9 1304-292.2" fill="#fefefe"/><path d="m-2651.9 8172.1c826.96-606.3 578.48-2683.6 938.28-2796.9h2178.7c0 813 351.86 2870.5 236.56 2870.5-196.8 0-743.46-268.4-1379.6-286.3-878.63-25.8-1882.5 196.8-1974 212.7" fill="#f4daa4"/><path d="m419.38 7182.1c190.84 536.8 888.57 908.5 1156.9 600.4 548.65-626.2-443.3-1854.7-1483-1854.7 129.21 93.4-33.793 240.5 121.26 286.3 443.29 135.1 1099.3 443.2 1224.5 872.6 57.64 196.8 107.34 411.5-83.5 522.8-254.44 147.1-622.2-284.2-852.79-518.8-15.898-15.9-87.461 81.5-83.488 91.4" fill="#f4daa4"/><path d="m-83.555 5375.2c-5.9609 389.6 97.406 1801 359.8 1113.2 31.809-83.5 41.746-868.7 37.77-1113.2h-397.57" fill="#ffedc3"/><path d="m-1973.2 34207c-143.39 1293.2 4173.1 850.8 3075.7-330.2-767.21-823.2-3004.8-319-3075.7 330.2" fill="#f5baa6"/><path d="m-1853.6 33740c-124.87 1295.3 3683.7 852.9 2715.4-328-675.68-824.9-2651.9-321.2-2715.4 328" fill="#a3733f"/><path d="m-1954.2 34343c5.29 65.6 294.72-690.5 1442.4-753.5 751.86-41.2 1466.7 158.2 1765.1 557.7-12.7-352.4-236.52-3071.5-354.51-3379.4h-2731.8c-59.79 546.6-175.67 3036-121.17 3575.2" fill="#f1dbc4"/><path d="m-186.94 30770c8.996 504.2-19.051 2351.3 180.95 2318 134.39-22.7 67.199-1754.5 68.785-2160.9 2.1211-80.4 3.707-129.1 2.1211-157.1h-251.86" fill="#ffefde"/><path d="m217.83 30770c9.527 504.2-18.519 2351.3 180.96 2318 134.4-22.7 67.195-1754.5 69.313-2160.9 1.586-80.4 3.703-129.1 1.586-157.1h-251.86" fill="#ffefde"/><path d="m622.6 30770c9.519 504.2-18.52 2351.3 180.95 2318 134.39-22.7 67.195-1754.5 69.316-2160.9 0-80.4 3.699-129.1 1.586-157.1h-251.86" fill="#ffefde"/><path d="m18.356 36378c-130.7-214.8-278.31-361.9-203.71-561.9 87.832-231.2 531.75-429.1 151.32-718.5-35.449-26-134.39-160.3-130.69-264.6 1.59-39.7 7.41-76.7 14.817-112.2h95.238c2.1172 13.3 2.1172 28.1 2.1172 42.9 12.699 315.3 475.67 404.8 188.36 845.5-104.76 158.2-401.59 285.2-52.382 613.8 14.812 13.2 28.043 84.1 33.336 155zm-782.03 0c-129.1-214.8-276.19-361.9-201.59-561.9 85.711-231.2 530.16-429.1 149.21-718.5-33.336-26-134.39-160.3-128.57-264.6 1.59-39.7 7.406-76.7 12.695-112.2h97.36c0 13.3 1.586 28.1 1.586 42.9 11.113 315.3 476.2 404.8 186.78 845.5-104.77 158.2-401.07 285.2-50.27 613.8 14.817 13.2 28.043 84.1 33.336 155zm391.54 0c-130.16-214.8-277.78-361.9-203.18-561.9 87.832-231.2 530.17-429.1 149.21-718.5-33.336-26-134.39-160.3-128.57-264.6 1.586-39.7 7.406-76.7 12.699-112.2h97.356c1.586 13.3 1.586 28.1 1.586 42.9 13.226 315.3 476.2 404.8 186.78 845.5-102.65 158.2-399.48 285.2-50.266 613.8 14.817 13.2 28.043 84.1 33.336 155h-98.945" fill="#e4f0e8"/><path d="m13063 17711c-22.2 46.6-1362.4 734.9-1276.2-307.9 87.3-1067.8 1509.6-1426 1509.6-1423.9-117.5 457.2 302.1 261.4-291 554-190.5 93.7-1069.4 571.4-838.1 991 138 254 703.7-107.9 906.8-194.2-5.2 149.8 50.3 239.2-11.1 381" fill="#fec9b7"/><path d="m13046 18760c-143.4 1293.1 4173.1 850.8 3075.7-330.2-767.2-823.3-3004.8-319-3075.7 330.2" fill="#f5baa6"/><path d="m13166 18293c-124.9 1295.3 3683.6 852.9 2715.4-328-675.7-824.9-2651.9-321.2-2715.4 328" fill="#a3733f"/><path d="m13065 18896c5.3 65.6 294.8-690.5 1442.4-753.5 751.9-41.3 1466.7 158.2 1765.1 557.7-12.7-352.4-236.5-3071.5-354.5-3379.4h-2731.8c-59.8 546.6-175.7 3036-121.2 3575.2" fill="#f1dbc4"/><path d="m13212 15322c9.6 504.2-18.5 2351.3 181 2318 134.4-22.8 67.2-1754.5 69.3-2160.9 1.6-80.4 3.7-129.1 1.6-157.1h-251.9" fill="#ffefde"/><path d="m13617 15322c9 504.2-19 2351.3 181 2318 134.4-22.8 67.2-1754.5 68.8-2160.9 2.1-80.4 3.7-129.1 2.1-157.1h-251.9" fill="#ffefde"/><path d="m14022 15322c9.5 504.2-18.5 2351.3 181 2318 134.4-22.8 67.2-1754.5 69.3-2160.9 1.6-80.4 3.7-129.1 1.6-157.1h-251.9" fill="#ffefde"/><path d="m14427 15322c9.5 504.2-18.5 2351.3 180.9 2318 134.4-22.8 67.2-1754.5 69.3-2160.9 1.6-80.4 3.7-129.1 1.6-157.1h-251.8" fill="#ffefde"/><path d="m14832 15322c9 504.2-19.1 2351.3 180.9 2318 134.4-22.8 67.2-1754.5 68.8-2160.9 2.1-80.4 3.7-129.1 2.1-157.1h-251.8" fill="#ffefde"/><path d="m15237 15322c9.6 504.2-18.5 2351.3 181 2318 134.4-22.8 67.2-1754.5 69.3-2160.9 1.6-80.4 3.7-129.1 1.6-157.1h-251.9" fill="#ffefde"/><path d="m15642 15322c9.5 504.2-18.5 2351.3 181 2318 134.4-22.8 67.2-1754.5 69.3-2160.9 0-80.4 3.7-129.1 1.6-157.1h-251.9" fill="#ffefde"/><path d="m15038 20930c-130.7-214.8-278.3-361.9-203.7-561.9 87.8-231.2 531.7-429.1 151.3-718.5-35.5-26-134.4-160.4-130.7-264.6 1.6-39.7 7.4-76.7 14.8-112.2h95.3c2.1 13.3 2.1 28.1 2.1 42.9 12.7 315.3 475.6 404.8 188.3 845.5-104.7 158.2-401.6 285.2-52.4 613.8 14.9 13.2 28.1 84.1 33.4 155zm-782.1 0c-129.1-214.8-276.2-361.9-201.5-561.9 85.7-231.2 530.1-429.1 149.2-718.5-33.4-26-134.4-160.4-128.6-264.6 1.6-39.7 7.4-76.7 12.7-112.2h97.3c0 13.3 1.6 28.1 1.6 42.9 11.1 315.3 476.2 404.8 186.8 845.5-104.8 158.2-401.1 285.2-50.3 613.8 14.9 13.2 28.1 84.1 33.4 155zm391.6 0c-130.2-214.8-277.8-361.9-203.2-561.9 87.8-231.2 530.2-429.1 149.2-718.5-33.3-26-134.4-160.4-128.6-264.6 1.6-39.7 7.5-76.7 12.7-112.2h97.4c1.6 13.3 1.6 28.1 1.6 42.9 13.2 315.3 476.2 404.8 186.8 845.5-102.7 158.2-399.5 285.2-50.3 613.8 14.8 13.2 28 84.1 33.3 155h-98.9" fill="#e4f0e8"/><path d="m33762 13039c-22.2 46.5-1362.5 734.9-1276.2-308 87.3-1067.7 1509.5-1425.9 1509.5-1423.8-117.4 457.2 302.2 261.4-291 554-190.5 93.6-1069.3 571.4-838.1 991 138.1 254 703.7-107.9 906.9-194.2-5.3 149.8 50.3 239.2-11.1 381" fill="#fec9b7"/><path d="m33746 14087c-143.4 1293.1 4173.1 850.8 3075.7-330.2-767.2-823.3-3004.8-319-3075.7 330.2" fill="#f5baa6"/><path d="m33865 13621c-124.8 1295.3 3683.7 852.9 2715.4-328.1-675.6-824.8-2651.9-321.1-2715.4 328.1" fill="#a3733f"/><path d="m33765 14223c5.3 65.6 294.7-690.5 1442.4-753.5 751.8-41.3 1466.7 158.2 1765.1 557.7-12.7-352.4-236.5-3071.5-354.5-3379.4h-2731.8c-59.8 546.5-175.7 3036-121.2 3575.2" fill="#f1dbc4"/><path d="m33912 10650c9.5 504.3-18.5 2351.4 181 2318.1 134.4-22.8 67.2-1754.6 69.3-2160.9 1.6-80.4 3.7-129.1 1.6-157.2h-251.9" fill="#ffefde"/><path d="m34317 10650c9 504.3-19 2351.4 181 2318.1 134.4-22.8 67.2-1754.6 68.7-2160.9 2.2-80.4 3.7-129.1 2.2-157.2h-251.9" fill="#ffefde"/><path d="m34722 10650c9.5 504.3-18.5 2351.4 180.9 2318.1 134.4-22.8 67.2-1754.6 69.3-2160.9 1.6-80.4 3.7-129.1 1.6-157.2h-251.8" fill="#ffefde"/><path d="m35126 10650c9.6 504.3-18.5 2351.4 181 2318.1 134.4-22.8 67.2-1754.6 69.3-2160.9 1.6-80.4 3.7-129.1 1.6-157.2h-251.9" fill="#ffefde"/><path d="m35532 10650c9 504.3-19 2351.4 181 2318.1 134.4-22.8 67.2-1754.6 68.8-2160.9 2.1-80.4 3.7-129.1 2.1-157.2h-251.9" fill="#ffefde"/><path d="m35937 10650c9.5 504.3-18.5 2351.4 181 2318.1 134.4-22.8 67.2-1754.6 69.3-2160.9 1.6-80.4 3.7-129.1 1.6-157.2h-251.9" fill="#ffefde"/><path d="m36341 10650c9.5 504.3-18.5 2351.4 180.9 2318.1 134.4-22.8 67.2-1754.6 69.4-2160.9 0-80.4 3.7-129.1 1.5-157.2h-251.8" fill="#ffefde"/><path d="m35737 16258c-130.7-214.8-278.3-361.9-203.7-561.9 87.9-231.3 531.8-429.1 151.4-718.6-35.5-25.9-134.4-160.3-130.7-264.5 1.5-39.7 7.4-76.7 14.8-112.2h95.2c2.1 13.2 2.1 28 2.1 42.9 12.7 315.3 475.7 404.7 188.4 845.5-104.8 158.2-401.6 285.2-52.4 613.7 14.8 13.3 28.1 84.2 33.3 155.1zm-782 0c-129.1-214.8-276.2-361.9-201.6-561.9 85.7-231.3 530.2-429.1 149.2-718.6-33.3-25.9-134.4-160.3-128.5-264.5 1.5-39.7 7.4-76.7 12.7-112.2h97.3c0 13.2 1.6 28 1.6 42.9 11.1 315.3 476.2 404.7 186.8 845.5-104.8 158.2-401.1 285.2-50.3 613.7 14.8 13.3 28.1 84.2 33.3 155.1zm391.6 0c-130.2-214.8-277.8-361.9-203.2-561.9 87.8-231.3 530.1-429.1 149.2-718.6-33.4-25.9-134.4-160.3-128.6-264.5 1.6-39.7 7.4-76.7 12.7-112.2h97.4c1.6 13.2 1.6 28 1.6 42.9 13.2 315.3 476.2 404.7 186.7 845.5-102.6 158.2-399.5 285.2-50.2 613.7 14.8 13.3 28 84.2 33.3 155.1h-98.9" fill="#e4f0e8"/><path d="m22260 33933c-22.2 46.6-1362.4 735-1276.2-307.9 87.3-1067.8 1509.6-1426 1509.6-1423.8-117.5 457.1 302.1 261.3-291 553.9-190.5 93.7-1069.4 571.5-838.1 991 138.1 254 703.7-107.9 906.9-194.1-5.3 149.7 50.2 239.1-11.2 380.9" fill="#fec9b7"/><path d="m22243 34982c-143.4 1293.2 4173.1 850.8 3075.7-330.1-767.2-823.3-3004.8-319.1-3075.7 330.1" fill="#f5baa6"/><path d="m22362 34515c-124.9 1295.3 3683.7 853 2715.4-328-675.7-824.9-2651.9-321.2-2715.4 328" fill="#a3733f"/><path d="m22262 35118c5.3 65.6 294.7-690.5 1442.3-753.5 751.9-41.2 1466.7 158.3 1765.1 557.7-12.7-352.4-236.5-3071.4-354.5-3379.4h-2731.8c-59.8 546.6-175.6 3036-121.1 3575.2" fill="#f1dbc4"/><path d="m22409 31544c9.5 504.2-18.6 2351.4 180.9 2318 134.4-22.7 67.2-1754.5 69.3-2160.9 1.6-80.4 3.7-129.1 1.6-157.1h-251.8" fill="#ffefde"/><path d="m22814 31544c8.9 504.2-19.1 2351.4 180.9 2318 134.4-22.7 67.2-1754.5 68.8-2160.9 2.1-80.4 3.7-129.1 2.1-157.1h-251.8" fill="#ffefde"/><path d="m23219 31544c9.5 504.2-18.5 2351.4 181 2318 134.4-22.7 67.2-1754.5 69.3-2160.9 1.6-80.4 3.7-129.1 1.6-157.1h-251.9" fill="#ffefde"/><path d="m23624 31544c9.5 504.2-18.5 2351.4 180.9 2318 134.4-22.7 67.2-1754.5 69.4-2160.9 1.5-80.4 3.7-129.1 1.5-157.1h-251.8" fill="#ffefde"/><path d="m24029 31544c9 504.2-19.1 2351.4 180.9 2318 134.4-22.7 67.2-1754.5 68.8-2160.9 2.1-80.4 3.7-129.1 2.1-157.1h-251.8" fill="#ffefde"/><path d="m24434 31544c9.5 504.2-18.6 2351.4 180.9 2318 134.4-22.7 67.2-1754.5 69.3-2160.9 1.6-80.4 3.7-129.1 1.6-157.1h-251.8" fill="#ffefde"/><path d="m24838 31544c9.5 504.2-18.5 2351.4 181 2318 134.4-22.7 67.2-1754.5 69.3-2160.9 0-80.4 3.7-129.1 1.6-157.1h-251.9" fill="#ffefde"/><path d="m24234 37152c-130.7-214.8-278.3-361.9-203.7-561.9 87.8-231.2 531.7-429.1 151.3-718.5-35.5-26-134.4-160.3-130.7-264.6 1.6-39.7 7.4-76.7 14.8-112.1h95.3c2.1 13.2 2.1 28 2.1 42.8 12.7 315.4 475.7 404.8 188.3 845.5-104.7 158.2-401.6 285.2-52.3 613.8 14.8 13.2 28 84.1 33.3 155zm-782 0c-129.1-214.8-276.2-361.9-201.6-561.9 85.7-231.2 530.1-429.1 149.2-718.5-33.4-26-134.4-160.3-128.6-264.6 1.6-39.7 7.4-76.7 12.7-112.1h97.4c0 13.2 1.5 28 1.5 42.8 11.2 315.4 476.2 404.8 186.8 845.5-104.7 158.2-401 285.2-50.2 613.8 14.8 13.2 28 84.1 33.3 155zm391.5 0c-130.2-214.8-277.8-361.9-203.2-561.9 87.9-231.2 530.2-429.1 149.2-718.5-33.3-26-134.4-160.3-128.5-264.6 1.5-39.7 7.4-76.7 12.7-112.1h97.3c1.6 13.2 1.6 28 1.6 42.8 13.2 315.4 476.2 404.8 186.8 845.5-102.7 158.2-399.5 285.2-50.3 613.8 14.8 13.2 28.1 84.1 33.3 155h-98.9" fill="#e4f0e8"/><path d="m35703 18929c-82.2 265.1 793.2 546.3 1559.3 811.5 1920.2 668.3 2702.3 1018.2 3201 1087.4 357.8-8.2 559.7-143.5 1354.8-498.7 705.5-315.4 3826.9-1466.4 4044.5-1649.4-498.8-363.3-4895.4-2315.1-4898-2315.1-347.7 111.2-464.1 334-1132.4 525.2-209.8 60.9-4031.1 1728.9-4129.2 2039.1" fill="#89ab76"/><path d="m35854 19886c-374.1-164.4-416.5-904.1-68.8-1206.5 755.7-657.9 5170.9-2302.1 5179.1-2315.1-82.5 0-230.9 636.4 140.2 978.5 79.6 77-1338.8 760.9-1487.6 835.3-479.7 252.1-3463.1 1644.2-3762.9 1707.8" fill="#699c75"/><path d="m35854 19886c1307.3 591.3 2858.8 1615.1 4290.6 1821.9 570.2-13.4 5142.3-2089.7 5468.5-2368.3-485.3-363.3-4508.6-1996.7-4508.6-1996.7-339.1 111.2-580.5 315.7-1232.8 506.5-204.2 58.4-3922.1 1729-4017.7 2036.6" fill="#89ab76"/><path d="m36361 20199c-74.3 233.2 697.4 479.8 1370.9 713.3 1689.5 586.1 2376.1 896.3 2816.4 957.3 315.7-7.8 490.5-127.2 1190.8-437.7 623-278.2 3367.6-1291.3 3558.7-1453.1-437.7-320.9-4306.6-2036.5-4309.2-2036.5-304.9 97.8-408.3 294.2-997 461.2-183 53.1-3545.8 1522.2-3630.6 1795.5" fill="#c7928b"/><path d="m36493 21042c-331.3-145.8-368.5-795.5-60.9-1063.3 663.1-578.3 4547.9-2026.1 4556.1-2036.5-71.8 0-201.5 559.3 122 861.7 71.4 66.2-1177.4 668.3-1307.2 734.5-421.8 220.2-3050 1445.2-3310 1503.6" fill="#c7928b"/><path d="m36493 21042c201.6 212 679.1 480.1 1334.1 713.3 1644.1 588.7 2012.7 827.5 2439.6 888.5 501.4-13.4 4526.8-1838 4810.6-2084.5-424.4-320.6-3964.5-1755.4-3967.1-1755.4-297.1 98.2-509.1 275.9-1084.5 442.9-178.1 52.8-3450.5 1522.2-3532.7 1795.2" fill="#e4b2ab"/><path d="m39803 22514c100.4-74.4 251.7-138 389.7-135.4 201.2 5.2 432.2 119.4 440 172.2-206.8 95.6-352.6 116.8-416.2 111.6-111.5-10.8-206.8-53.2-413.5-148.4" fill="#face87"/><path d="m38281 21146c92.6 37.2 1522.2 618.1 1707.7 750.5 127.2 93 429.6-23.8-18.5-206.8-326.2-132.8-1421.5-787.7-1737.2-734.5-77 10.4-45 156.6 48 190.8" fill="#c7928b"/><path d="m39196 21106c58 23.8 959.8 389.8 1076.2 474.9 82.2 58.4 273.4-16-10.4-130.1-206.8-84.8-898.9-495.8-1097.8-464.2-47.6 8.2-26.4 98.2 32 119.4" fill="#c7928b"/><path d="m19969 11863c-82.2 265.1 793.3 546.3 1559.4 811.5 1920.1 668.3 2702.2 1018.2 3200.9 1087.4 357.8-8.2 559.8-143.6 1354.9-498.7 705.5-315.4 3826.8-1466.4 4044.4-1649.4-498.7-363.4-4895.3-2315.1-4897.9-2315.1-347.8 111.2-464.2 334-1132.5 525.1-209.7 61-4031 1729-4129.2 2039.2" fill="#89ab76"/><path d="m25419 10566c-604.7-212-487.9-1445.3-114.1-1201.3 1174.8 760.9 3346.7 1485 4309.2 2094.9 26.8 18.6-344.8 281.2-42.4 779.9-904.1-233.5-3282.8-1535.6-4086.5-1662.8-29-5.5-7.8 10.5-66.2-10.7" fill="#fee3b4"/><path d="m20120 12820c-374.2-164.3-416.6-904-68.8-1206.4 755.7-657.9 5170.9-2302.1 5179.1-2315.1-82.6 0-231 636.3 140.2 978.5 79.6 77-1338.9 760.9-1487.6 835.3-479.8 252.1-3463.2 1644.2-3762.9 1707.7" fill="#699c75"/><path d="m20120 12820c1307.2 591.4 2858.8 1615.2 4290.6 1822 570.1-13.4 5142.3-2089.7 5468.4-2368.3-485.3-363.3-4508.5-1996.7-4508.5-1996.7-339.2 111.2-580.6 315.7-1232.9 506.5-204.2 58.4-3922.1 1729-4017.6 2036.5" fill="#89ab76"/><path d="m20627 13133c-74.4 233.2 697.3 479.7 1370.8 713.3 1689.6 586.1 2376.1 896.3 2816.4 957.3 315.8-7.8 490.6-127.2 1190.9-437.8 622.9-278.1 3367.5-1291.2 3558.7-1453-437.7-320.9-4306.6-2036.5-4309.2-2036.5-305 97.8-408.4 294.2-997.1 461.1-183 53.2-3545.7 1522.2-3630.5 1795.6" fill="#c7928b"/><path d="m25419 11993c-530.3-188.2-429.5-1272.7-98.1-1058.1 1034.2 668.3 2943.6 1307.6 3792.2 1843.2 23.8 15.9-304.9 246.5-37.1 686.9-795.5-204.2-2890.8-1352.7-3596-1463.9-26.4-5.5-10.7 7.9-61-8.1" fill="#fee3b4"/><path d="m20759 13976c-331.4-145.8-368.6-795.5-61-1063.3 663.1-578.3 4548-2026.1 4556.2-2036.5-71.8 0-201.6 559.3 121.9 861.7 71.5 66.2-1177.4 668.3-1307.2 734.5-421.7 220.2-3050 1445.2-3309.9 1503.6" fill="#c7928b"/><path d="m20759 13976c201.6 212 679.1 480.1 1334 713.3 1644.2 588.7 2012.7 827.5 2439.7 888.5 501.3-13.4 4526.8-1838 4810.5-2084.5-424.3-320.6-3964.4-1755.4-3967.1-1755.4-297.1 98.2-509.1 275.9-1084.4 442.9-178.2 52.8-3450.5 1522.2-3532.7 1795.2" fill="#e4b2ab"/><path d="m24069 15448c100.4-74.4 251.8-138 389.8-135.4 201.2 5.2 432.1 119.4 439.9 172.2-206.8 95.6-352.5 116.8-416.1 111.6-111.6-10.8-206.8-53.2-413.6-148.4" fill="#face87"/><path d="m28763 13191c-397.6 307.9 90.4 583.5 106.4 570.5 259.9-135.4 527.7-228.3 474.5-268.1-87.4-66.2-363.3-233.2-580.9-302.4" fill="#face87"/><path d="m22547 14080c92.6 37.2 1522.2 618.1 1707.8 750.5 127.2 92.9 429.5-23.8-18.6-206.8-326.2-132.8-1421.4-787.7-1737.2-734.5-76.9 10.4-45 156.6 48 190.8" fill="#c7928b"/><path d="m23462 14040c58 23.8 959.9 389.7 1076.3 474.9 82.2 58.4 273.3-16-10.4-130.2-206.8-84.8-898.9-495.7-1097.9-464.1-47.6 8.2-26.4 98.2 32 119.4" fill="#c7928b"/><path d="m25706 11605c162.2 96 652.7 264.1 1020.2 437.8 817-703.7 627.3-606.6 900-1586.6 117.1-421.3 219.8-560.8 447-640.4-211.3-124.9-394.6 55.1-486.1 60.6-62.1 3.8-41.3-53.1 164.8-346.9-451.9-54.3-737.2 277.8-798.1 589-116.1 592.1-183.4 782.9-386.8 983-354.1 348.8-858 421-861 503.5" fill="#b6c1d9"/><path d="m40702 8211.9c-363.8-725.6-1131.1-829-1916.3-644.1-135.2 31.8-990 540.7-1437.3 604.3 248.5 250.5 1145 584.4 1928.3 526.8 781.2-57.7 1484.9-371.8 1425.3-487" fill="#ffedc3"/><path d="m40664 7927.6c-288.3-723.6-1097.3-1011.8-1719.5-828.9-709.7 210.7-1202.7 540.6-1196.7 749.4 9.9 322 908.4 397.6 1612.1 371.7 771.3-25.8 1351.8-172.9 1304.1-292.2" fill="#fefefe"/><path d="m37348 8172.1c827-606.3 578.5-2683.6 938.3-2796.9h2178.7c0 813 351.9 2870.5 236.6 2870.5-196.8 0-743.5-268.4-1379.6-286.3-878.7-25.8-1882.5 196.8-1974 212.7" fill="#f4daa4"/><path d="m39916 5375.2c-5.9 389.6 97.5 1801 359.9 1113.2 31.8-83.5 41.7-868.7 37.7-1113.2h-397.6" fill="#ffedc3"/><path d="m39284 5375.2c-4 401.5 99.4 1787.1 359.8 1103.2 31.8-81.5 41.8-848.8 39.8-1103.2h-399.6" fill="#ffedc3"/><path d="m38686 5375.2c-6 377.7 97.4 1814.9 359.8 1121.1 33.8-83.5 41.7-886.6 39.7-1121.1h-399.5" fill="#ffedc3"/><path d="m38096 5824.4c39.7 536.8 143.1 1256.4 345.9 725.6 35.7-93.4 43.7-1061.5 37.7-1174.8-415.4-91.5-393.6 320-383.6 449.2" fill="#ffedc3"/><path d="m7294.2 27500c-363.78-725.6-1131.1-829-1916.3-644.1-135.18 31.8-989.96 540.7-1437.2 604.3 248.49 250.5 1145 584.5 1928.2 526.8 781.23-57.6 1484.9-371.7 1425.3-487" fill="#ffedc3"/><path d="m7256.4 27215c-288.25-723.6-1097.3-1011.8-1719.5-828.9-709.67 210.7-1202.7 540.7-1196.7 749.4 9.94 322 908.46 397.6 1612.2 371.7 771.3-25.8 1351.8-172.9 1304-292.2" fill="#fefefe"/><path d="m3940.7 27460c826.96-606.3 578.47-2683.6 938.28-2796.9h2178.7c0 813 351.85 2870.5 236.55 2870.5-196.8 0-743.46-268.4-1379.6-286.3-878.63-25.8-1882.5 196.8-1974 212.7" fill="#f4daa4"/><path d="m7011.9 26470c190.84 536.7 888.58 908.4 1156.9 600.3 548.65-626.2-443.29-1854.7-1483-1854.7 129.22 93.5-33.79 240.6 121.26 286.3 443.3 135.2 1099.3 443.3 1224.5 872.7 57.65 196.8 107.34 411.4-83.49 522.8-254.45 147.1-622.2-284.3-852.79-518.9-15.91-15.9-87.47 81.5-83.5 91.5" fill="#f4daa4"/><path d="m6509 24663c-5.96 389.6 97.41 1801 359.81 1113.2 31.81-83.5 41.74-868.7 37.77-1113.2h-397.58" fill="#ffedc3"/><path d="m5876.9 24663c-3.98 401.6 99.39 1787.1 359.8 1103.3 31.8-81.5 41.74-848.8 39.76-1103.3h-399.56" fill="#ffedc3"/><path d="m5278.5 24663c-5.97 377.7 97.4 1814.9 359.8 1121.2 33.79-83.5 41.74-886.6 39.76-1121.2h-399.56" fill="#ffedc3"/><path d="m4688.1 25112c39.76 536.7 143.13 1256.3 345.89 725.5 35.78-93.4 43.73-1061.5 37.77-1174.8-415.47-91.4-393.6 320-383.66 449.3" fill="#ffedc3"/><path d="m38044 33158c-22.2 46.6-1362.4 734.9-1276.2-307.9 87.3-1067.8 1509.6-1426 1509.6-1423.9-117.5 457.2 302.1 261.4-291.1 554-190.4 93.7-1069.3 571.5-838.1 991 138.1 254 703.8-107.9 906.9-194.1-5.3 149.7 50.3 239.1-11.1 380.9" fill="#fec9b7"/><path d="m38027 34207c-143.4 1293.2 4173.1 850.8 3075.7-330.2-767.2-823.2-3004.8-319-3075.7 330.2" fill="#f5baa6"/><path d="m38146 33740c-124.9 1295.3 3683.6 852.9 2715.4-328-675.7-824.9-2651.9-321.2-2715.4 328" fill="#a3733f"/><path d="m38046 34343c5.3 65.6 294.7-690.5 1442.4-753.5 751.8-41.2 1466.7 158.2 1765.1 557.7-12.7-352.4-236.5-3071.5-354.5-3379.4h-2731.8c-59.8 546.6-175.7 3036-121.2 3575.2" fill="#f1dbc4"/><path d="m38193 30770c9.6 504.2-18.5 2351.3 181 2318 134.4-22.7 67.2-1754.5 69.3-2160.9 1.6-80.4 3.7-129.1 1.6-157.1h-251.9" fill="#ffefde"/><path d="m38598 30770c9 504.2-19 2351.3 181 2318 134.4-22.7 67.2-1754.5 68.8-2160.9 2.1-80.4 3.7-129.1 2.1-157.1h-251.9" fill="#ffefde"/><path d="m39003 30770c9.5 504.2-18.5 2351.3 180.9 2318 134.4-22.7 67.2-1754.5 69.4-2160.9 1.6-80.4 3.7-129.1 1.6-157.1h-251.9" fill="#ffefde"/><path d="m39408 30770c9.5 504.2-18.6 2351.3 180.9 2318 134.4-22.7 67.2-1754.5 69.3-2160.9 1.6-80.4 3.7-129.1 1.6-157.1h-251.8" fill="#ffefde"/><path d="m39813 30770c9 504.2-19.1 2351.3 180.9 2318 134.4-22.7 67.2-1754.5 68.8-2160.9 2.1-80.4 3.7-129.1 2.1-157.1h-251.8" fill="#ffefde"/><path d="m40018 36378c-130.6-214.8-278.3-361.9-203.7-561.9 87.9-231.2 531.8-429.1 151.4-718.5-35.5-26-134.4-160.3-130.7-264.6 1.6-39.7 7.4-76.7 14.8-112.2h95.2c2.2 13.3 2.2 28.1 2.2 42.9 12.6 315.3 475.6 404.8 188.3 845.5-104.7 158.2-401.6 285.2-52.4 613.8 14.9 13.2 28.1 84.1 33.4 155zm-782 0c-129.1-214.8-276.2-361.9-201.6-561.9 85.8-231.2 530.2-429.1 149.2-718.5-33.3-26-134.3-160.3-128.5-264.6 1.6-39.7 7.4-76.7 12.7-112.2h97.3c0 13.3 1.6 28.1 1.6 42.9 11.1 315.3 476.2 404.8 186.8 845.5-104.8 158.2-401.1 285.2-50.3 613.8 14.8 13.2 28.1 84.1 33.4 155zm391.6 0c-130.2-214.8-277.8-361.9-203.2-561.9 87.8-231.2 530.2-429.1 149.2-718.5-33.3-26-134.4-160.3-128.6-264.6 1.6-39.7 7.4-76.7 12.7-112.2h97.4c1.6 13.3 1.6 28.1 1.6 42.9 13.2 315.3 476.2 404.8 186.8 845.5-102.7 158.2-399.5 285.2-50.3 613.8 14.8 13.2 28 84.1 33.3 155h-98.9" fill="#e4f0e8"/><path d="m28622 19567c-270.9 368.1-672.9 679.1-795.9 427.8-238.8-483.9 789.6-1578.3 833.3-1521.3 226.4 286.1 1049.8 1615.8 660.4 1662.1-317.3 38.3-553.4-197.8-697.8-568.6" fill="#f7b9b2"/><path d="m3044.4 14066c-93 126.4-230.96 233.2-273.17 146.9-81.99-166.1 271.03-541.8 286.02-522.2 77.7 98.2 360.36 554.6 226.68 570.5-108.91 13.2-189.98-67.9-239.53-195.2" fill="#f7b9b2"/><path d="m19217 28334c-92.9 126.4-230.9 233.1-273.1 146.9-82-166.2 271-541.8 286-522.2 77.7 98.2 360.4 554.6 226.7 570.5-108.9 13.1-190-67.9-239.6-195.2" fill="#f7b9b2"/><path d="m38029 38494c-93 126.3-231 233.1-273.2 146.8-82-166.1 271-541.7 286-522.2 77.7 98.2 360.4 554.6 226.7 570.5-108.9 13.2-190-67.9-239.5-195.1" fill="#f7b9b2"/><path d="m11913 38149c-93 126.3-231 233.1-273.2 146.8-82-166.1 271-541.8 286-522.2 77.7 98.2 360.4 554.6 226.7 570.5-108.9 13.2-190-67.9-239.5-195.1" fill="#f7b9b2"/><path d="m21482 18397c-93 126.3-231 233.1-273.2 146.8-82-166.1 271-541.7 286-522.1 77.7 98.1 360.4 554.6 226.7 570.5-108.9 13.1-190-67.9-239.5-195.2" fill="#f7b9b2"/><path d="m23445 27580c-93 126.4-231 233.1-273.2 146.9-82-166.1 271-541.8 286-522.2 77.7 98.2 360.4 554.6 226.7 570.5-108.9 13.2-190-67.9-239.5-195.2" fill="#f7b9b2"/><path d="m32065 22468c-92.9 126.3-230.9 233.1-273.1 146.8-82-166.1 271-541.7 286-522.1 77.7 98.2 360.4 554.6 226.7 570.5-108.9 13.1-190-67.9-239.6-195.2" fill="#f7b9b2"/><path d="m9672 21132c-92.99 126.3-230.96 233.1-273.18 146.8-81.98-166.1 271.04-541.8 286.03-522.2 77.7 98.2 360.4 554.6 226.68 570.5-108.91 13.2-189.97-67.9-239.53-195.1" fill="#f7b9b2"/><path d="m37005 25475c-92.9 126.4-230.9 233.1-273.1 146.9-82-166.1 271-541.8 286-522.2 77.7 98.2 360.4 554.6 226.7 570.5-108.9 13.2-190-67.9-239.6-195.2" fill="#f7b9b2"/><path d="m32994 17625c-93 126.4-231 233.1-273.2 146.9-82-166.1 271.1-541.8 286-522.2 77.7 98.2 360.4 554.6 226.7 570.5-108.9 13.2-189.9-67.9-239.5-195.2" fill="#f7b9b2"/><path d="m24034 5747.7c-93 126.4-231 233.1-273.2 146.9-82-166.1 271-541.8 286-522.2 77.7 98.2 360.4 554.6 226.7 570.5-108.9 13.2-190-67.9-239.5-195.2" fill="#f7b9b2"/><path d="m26272 898.1c-93 126.3-231 233.1-273.2 146.8-82-166.1 271-541.7 286-522.2 77.7 98.203 360.4 554.7 226.7 570.6-108.9 13.1-190-67.9-239.5-195.2" fill="#f7b9b2"/><path d="m12522 4450c-93 126.3-231 233.1-273.2 146.8-82-166.1 271-541.7 286-522.1 77.7 98.2 360.4 554.6 226.7 570.5-108.9 13.1-190-67.9-239.5-195.2" fill="#f7b9b2"/><path d="m1445.7 27474c-92.99 126.4-230.96 233.1-273.17 146.9-81.98-166.2 271.03-541.8 286.02-522.2 77.7 98.2 360.36 554.6 226.68 570.5-108.9 13.1-189.97-67.9-239.53-195.2" fill="#f7b9b2"/><path d="m37554 2762.1c-270.9 368.1-672.8 679.1-795.8 427.8-238.9-483.9 789.6-1578.3 833.2-1521.3 226.4 286.1 1049.9 1615.8 660.4 1662.1-317.2 38.3-553.4-197.8-697.8-568.6" fill="#f7b9b2"/><path d="m31888 33651c-270.9 368.1-672.9 679.1-795.9 427.8-238.8-483.9 789.6-1578.3 833.3-1521.3 226.4 286.1 1049.8 1615.8 660.4 1662.1-317.3 38.3-553.4-197.8-697.8-568.6" fill="#f7b9b2"/><path d="m4355.6 4921.7c-270.93 368-672.87 679.1-795.85 427.7-238.84-483.9 789.6-1578.3 833.27-1521.2 226.37 286 1049.8 1615.7 660.38 1662.1-317.26 38.3-553.43-197.9-697.8-568.6" fill="#f7b9b2"/><path d="m6292.1 35254c-270.92 368-672.86 679.1-795.84 427.8-238.84-484 789.6-1578.4 833.27-1521.3 226.37 286 1049.8 1615.7 660.38 1662.1-317.26 38.3-553.44-197.9-697.81-568.6" fill="#f7b9b2"/><path d="m17160 7896.3c-270.9 368.1-672.8 679.1-795.8 427.8-238.9-483.9 789.6-1578.3 833.2-1521.3 226.4 286.1 1049.9 1615.8 660.4 1662.1-317.3 38.3-553.4-197.8-697.8-568.6" fill="#f7b9b2"/><path d="m12945 24616c-270.9 368-672.8 679.1-795.8 427.7-238.9-483.9 789.6-1578.3 833.3-1521.3 226.3 286.1 1049.8 1615.8 660.3 1662.1-317.2 38.4-553.4-197.8-697.8-568.5" fill="#f7b9b2"/></g></g></svg>
