<?xml version="1.0" encoding="UTF-8" standalone="no"?>
<svg
   xmlns:dc="http://purl.org/dc/elements/1.1/"
   xmlns:cc="http://creativecommons.org/ns#"
   xmlns:rdf="http://www.w3.org/1999/02/22-rdf-syntax-ns#"
   xmlns:svg="http://www.w3.org/2000/svg"
   xmlns="http://www.w3.org/2000/svg"
   xmlns:xlink="http://www.w3.org/1999/xlink"
   xmlns:sodipodi="http://sodipodi.sourceforge.net/DTD/sodipodi-0.dtd"
   xmlns:inkscape="http://www.inkscape.org/namespaces/inkscape"
   viewBox="0 0 200 200"
   id="svg52882"
   version="1.1"
   inkscape:version="0.91+devel+osxmenu r12867"
   sodipodi:docname="owl.svg">
  <metadata
     id="metadata52924">
    <rdf:RDF>
      <cc:Work
         rdf:about="">
        <dc:format>image/svg+xml</dc:format>
        <dc:type
           rdf:resource="http://purl.org/dc/dcmitype/StillImage" />
      </cc:Work>
    </rdf:RDF>
  </metadata>
  <sodipodi:namedview
     pagecolor="#ffffff"
     bordercolor="#666666"
     borderopacity="1"
     objecttolerance="10"
     gridtolerance="10"
     guidetolerance="10"
     inkscape:pageopacity="0"
     inkscape:pageshadow="2"
     inkscape:window-width="1280"
     inkscape:window-height="751"
     id="namedview52922"
     showgrid="false"
     inkscape:zoom="1.18"
     inkscape:cx="100"
     inkscape:cy="100"
     inkscape:window-x="0"
     inkscape:window-y="23"
     inkscape:window-maximized="0"
     inkscape:current-layer="svg52882" />
  <defs
     id="defs52884">
    <filter
       id="2"
       x="-.237"
       width="1.475"
       y="-.229"
       height="1.457"
       color-interpolation-filters="sRGB">
      <feGaussianBlur
         stdDeviation="3.70334"
         id="feGaussianBlur52887" />
    </filter>
    <filter
       id="3"
       x="-.296"
       width="1.592"
       y="-.53"
       height="2.06"
       color-interpolation-filters="sRGB">
      <feGaussianBlur
         stdDeviation="5.63259"
         id="feGaussianBlur52890" />
    </filter>
  </defs>
  <path
     d="m 1.081,-9.081 210,0 0,210 -210,0 z"
     id="path52892"
     inkscape:connector-curvature="0"
     style="fill:#afd4e5"
     inkscape:export-xdpi="96"
     inkscape:export-ydpi="96"
     inkscape:export-filename="/Users/daniel/Library/Mobile Documents/com~apple~CloudDocs/Web/Portfolio/img/PNG/owl.png" />
  <g
     id="g52894"
     transform="matrix(1.05,0,0,1.05,-0.05405,-14.04595)"
     style="fill:#85a1ae"
     inkscape:export-xdpi="96"
     inkscape:export-ydpi="96"
     inkscape:export-filename="/Users/daniel/Library/Mobile Documents/com~apple~CloudDocs/Web/Portfolio/img/PNG/owl.png">
    <path
       d="m 140.27,31.871 0,18.814 -20.06,-7.839 20.06,-10.975 m -88.62,0 0,18.814 20.06,-7.839 -20.06,-10.975 m 0,0 0,18.814 20.06,-7.839 -20.06,-10.975"
       id="path52896"
       inkscape:connector-curvature="0" />
    <path
       d="m 51.641,31.871 0,18.814 20.06,-7.839 -20.06,-10.975"
       id="path52898"
       inkscape:connector-curvature="0" />
    <path
       d="m 51.642,42.497 88.62,0 0,67.46 -88.62,-15.678 0,-51.781"
       id="path52900"
       inkscape:connector-curvature="0" />
  </g>
  <path
     d="m 147.22945,172.24505 0,-87.297 -93.051,0 c 0,48.18555 41.69025,87.297 93.051,87.297"
     id="path52902"
     inkscape:connector-curvature="0"
     style="fill:#52626a"
     inkscape:export-xdpi="96"
     inkscape:export-ydpi="96"
     inkscape:export-filename="/Users/daniel/Library/Mobile Documents/com~apple~CloudDocs/Web/Portfolio/img/PNG/owl.png" />
  <path
     transform="matrix(0.7225575,0,0,1.040907,40.6513,-964.88395)"
     d="m 29.3,968.2 41.553,0 0,25.499 -43.11,-1.203 z"
     id="0"
     inkscape:connector-curvature="0"
     style="opacity:0.23500001;fill:#52626a;filter:url(#3)"
     inkscape:export-xdpi="96"
     inkscape:export-ydpi="96"
     inkscape:export-filename="/Users/daniel/Library/Mobile Documents/com~apple~CloudDocs/Web/Portfolio/img/PNG/owl.png" />
  <path
     d="m 63.48145,51.65255 c 0,-5.37915 4.64835,-9.7398 10.3824,-9.7398 5.73405,0 10.3824,4.36065 10.3824,9.7398 0,5.37915 -4.64835,9.7398 -10.3824,9.7398 -5.73405,0 -10.3824,-4.36065 -10.3824,-9.7398 m 52.647,0"
     id="path52905"
     inkscape:connector-curvature="0"
     style="fill:#ffffff"
     inkscape:export-xdpi="96"
     inkscape:export-ydpi="96"
     inkscape:export-filename="/Users/daniel/Library/Mobile Documents/com~apple~CloudDocs/Web/Portfolio/img/PNG/owl.png" />
  <path
     d="m 116.12845,51.65255 c 0,-5.37915 4.64835,-9.7398 10.3824,-9.7398 5.73405,0 10.3824,4.36065 10.3824,9.7398 0,5.37915 -4.64835,9.7398 -10.3824,9.7398 -5.73405,0 -10.3824,-4.36065 -10.3824,-9.7398"
     id="1"
     inkscape:connector-curvature="0"
     style="fill:#ffffff"
     inkscape:export-xdpi="96"
     inkscape:export-ydpi="96"
     inkscape:export-filename="/Users/daniel/Library/Mobile Documents/com~apple~CloudDocs/Web/Portfolio/img/PNG/owl.png" />
  <path
     d="m 69.25645,97.62155 6.87225,6.38715 6.80925,-6.38715 -13.6815,0 m 26.3445,0 6.80925,6.38715 6.80925,-6.38715 -13.6185,0 m 26.3445,0 6.80925,6.38715 6.80925,-6.38715 -13.6185,0 m -26.3445,18.0873 6.80925,6.38715 6.80925,-6.38715 -13.6185,0 m 26.3445,0 6.80925,6.38715 6.80925,-6.38715 -13.6185,0 m 0,18.14715 6.80925,6.38715 6.80925,-6.38715 -13.6185,0"
     id="path52908"
     inkscape:connector-curvature="0"
     style="fill:#84a0ad"
     inkscape:export-xdpi="96"
     inkscape:export-ydpi="96"
     inkscape:export-filename="/Users/daniel/Library/Mobile Documents/com~apple~CloudDocs/Web/Portfolio/img/PNG/owl.png" />
  <path
     d="m 67.57645,51.65255 c 0,-3.25815 2.81505,-5.8989 6.28845,-5.8989 l 0.0483,6.17295 6.23385,0 c -0.15225,3.1311 -2.9064,5.62485 -6.28215,5.62485 -3.4734,0 -6.28845,-2.64075 -6.28845,-5.8989"
     id="path52910"
     inkscape:connector-curvature="0"
     style="fill:#52626a"
     inkscape:export-xdpi="96"
     inkscape:export-ydpi="96"
     inkscape:export-filename="/Users/daniel/Library/Mobile Documents/com~apple~CloudDocs/Web/Portfolio/img/PNG/owl.png" />
  <use
     transform="translate(48.87225)"
     xlink:href="#0"
     id="use52912"
     x="0"
     y="0"
     width="100%"
     height="100%"
     inkscape:export-xdpi="96"
     inkscape:export-ydpi="96"
     inkscape:export-filename="/Users/daniel/Library/Mobile Documents/com~apple~CloudDocs/Web/Portfolio/img/PNG/owl.png" />
  <use
     xlink:href="#1"
     id="use52914"
     x="0"
     y="0"
     width="100%"
     height="100%"
     inkscape:export-xdpi="96"
     inkscape:export-ydpi="96"
     inkscape:export-filename="/Users/daniel/Library/Mobile Documents/com~apple~CloudDocs/Web/Portfolio/img/PNG/owl.png" />
  <path
     d="m 120.22345,51.65255 c 0,-3.25815 2.81505,-5.8989 6.28845,-5.8989 l 0.0483,6.17295 6.23385,0 c -0.15225,3.1311 -2.9064,5.62485 -6.28215,5.62485 -3.4734,0 -6.28845,-2.64075 -6.28845,-5.8989"
     id="path52916"
     inkscape:connector-curvature="0"
     style="fill:#52626a"
     inkscape:export-xdpi="96"
     inkscape:export-ydpi="96"
     inkscape:export-filename="/Users/daniel/Library/Mobile Documents/com~apple~CloudDocs/Web/Portfolio/img/PNG/owl.png" />
  <path
     transform="matrix(2.0363595,0,0,1.9102755,2.9521,-1818.954)"
     d="M 64.944,1038.46 48.4,1022.91 27.519,999.564 c 0,17.817 19.608,38.896 37.425,38.896"
     id="path52918"
     inkscape:connector-curvature="0"
     style="opacity:0.16300001;filter:url(#2)"
     inkscape:export-xdpi="96"
     inkscape:export-ydpi="96"
     inkscape:export-filename="/Users/daniel/Library/Mobile Documents/com~apple~CloudDocs/Web/Portfolio/img/PNG/owl.png" />
  <path
     d="m 92.18845,57.82655 9.95085,0 0,15.1494 z"
     id="path52920"
     inkscape:connector-curvature="0"
     style="fill:#52626a"
     inkscape:export-xdpi="96"
     inkscape:export-ydpi="96"
     inkscape:export-filename="/Users/daniel/Library/Mobile Documents/com~apple~CloudDocs/Web/Portfolio/img/PNG/owl.png" />
</svg>
