<?xml version="1.0" encoding="utf-8"?>
<svg xmlns="http://www.w3.org/2000/svg" viewBox="0 0 466 477" fill="rgba(99, 102, 241, 1)" preserveAspectRatio="xMidYMid meet">
<g>
	<path d="M432.1,87c-1-1.6-2.7-2.8-4.5-3.2l-37.9-8.4v-5.3c0-4-3.3-7.2-7.2-7.2h-49.4L139.3,20c-12.5-2.8-24.8,5.1-27.6,17.6
		l-2.1,9.3l14.1,3.2l2.1-9.3c0.5-1.9,1.5-3.6,3.1-4.9c2.1-1.6,4.7-2.3,7.3-1.7l129.9,28.8H92.6c-12,0-21.7,9.8-21.7,21.7v58h14.5
		v-58c0-4,3.3-7.2,7.2-7.2h282.6v185.3l-99.1,92c-2.9,2.7-3.1,7.2-0.5,10.1c0.3,0.3,0.6,0.6,0.9,0.8l-11.1,1.6l2.1,14.3l44.8-6.4
		c7.6,9.3,6.2,23-3.1,30.5c-3.9,3.2-8.7,4.9-13.8,4.9H129.7l4.7-39c4.4-15.5,18.7-26.2,34.9-26.3h46.5c4,0,7.2-3.3,7.2-7.2v-32.3
		c14.1,4.4,29.4,4.4,43.5,0v32.5H281v-14.5h14.5V187.1c0-7.6-4-14.7-10.6-18.7l-65.4-39.2c-3.3-1.9-7.4-1.1-9.6,2l-34.1,47.6h-3.5
		c0-4.2,3-24.4,12.2-36.2c34.8-44.8,116.4-37.8,130.9,21.7c1.2,4.8,1.8,9.7,1.8,14.6v108.7h14.5V178.8c0-11.4-2.4-22.7-7.2-33.2
		V91.9H310v32.3c-4.3-4.6-9.2-8.7-14.5-12.1V91.9H281v12.7c-4.7-1.8-9.5-3.3-14.5-4.2v-8.5H252v7.2h-14.5v-7.2H223v8.6
		c-5,0.9-9.8,2.3-14.5,4.2V91.9H194v20.2c-5.3,3.4-10.1,7.5-14.5,12.1V91.9H165v53.8c-4.8,10.4-7.2,21.7-7.2,33.2v3.9
		c-13.9,8-18.6,25.7-10.6,39.6c2.5,4.4,6.3,8.1,10.6,10.6v43.9c0,19.8,7.1,39.1,20.1,54.2h-8.6c-22.9,0-42.9,15.4-48.9,37.4
		c-0.1,0.4-0.2,0.7-0.2,1l-5,41.3H92.6c-2.4,0-4.9,0.5-7.2,1.3V157.1H70.8v224.5l-13.1-2.8c-3.9-0.8-6.4-4.7-5.6-8.6v-0.1l14.9-66.4
		l-14.1-3.2L37.9,367c-2.6,11.7,4.8,23.4,16.5,26c0.1,0,0.1,0,0.2,0l16.2,3.4v36.1c0,12,9.8,21.7,21.7,21.7h289.9
		c4,0,7.2-3.3,7.2-7.2v-72.5h-14.5v36.2h-44c4.2-4.4,7.4-9.6,9.6-15.2l34.4-90.3V360h14.5v-82.2L433,92.5
		C433.5,90.6,433.1,88.6,432.1,87z M217.8,145.1l59.7,35.8c2.2,1.4,3.5,3.7,3.5,6.3v14.1c-5.6-2-11.9,0.9-13.9,6.6
		c-2,5.6,0.9,11.9,6.6,13.9c2.4,0.8,5,0.8,7.3,0V282c-25,20-61.4,16-81.4-9c-8.2-10.3-12.8-23.1-12.8-36.2v-48.4L217.8,145.1z
		 M172.3,193.3v29c-8,0-14.5-6.5-14.5-14.5C157.8,199.9,164.3,193.3,172.3,193.3z M179.5,307.6c-4.7-9.5-7.2-20-7.2-30.7v-40
		c-0.1,25.9,13.8,49.9,36.2,62.8V331h-9.8C190.7,324.8,184.2,316.7,179.5,307.6z M375.2,439.7H92.6c-4,0-7.2-3.3-7.2-7.2
		s3.3-7.2,7.2-7.2h282.6V439.7z M330.8,380.9c-3.4-15.1-16.1-26.4-31.6-28l65.4-60.7L330.8,380.9z M389.7,214.2V90.3l27.5,6.1
		L389.7,214.2z"/>
	<rect x="99.8" y="91.9" width="14.5" height="304.4"/>
	<rect x="136.1" y="91.9" width="14.5" height="58"/>
	<rect x="339" y="91.9" width="14.5" height="58"/>
	<path d="M212.1,222.3c6,0,10.9-4.9,10.9-10.9s-4.9-10.9-10.9-10.9s-10.9,4.9-10.9,10.9S206.2,222.3,212.1,222.3z"/>
	<path d="M244.8,265.8c12,0,21.7-9.8,21.7-21.7H252c0,4-3.3,7.2-7.2,7.2c-4,0-7.2-3.3-7.2-7.2H223C223,256,232.8,265.8,244.8,265.8z
		"/>
	<rect x="186.8" y="341.7" transform="matrix(0.124 -0.9923 0.9923 0.124 -198.0086 517.4703)" width="14.5" height="58.4"/>
</g>
</svg>
