<?xml version="1.0" encoding="utf-8"?>
<svg xmlns="http://www.w3.org/2000/svg" viewBox="0 0 466 477" fill="rgba(99, 102, 241, 1)" preserveAspectRatio="xMidYMid meet">
<title>Librarian</title>
<g>
	<path d="M91.4,449.4h117.9c4.5,0,7.5-3,7.5-7.5c0-4.5-3-7.5-7.5-7.5h-57.8v-82.6c0-4.5-3-7.5-7.5-7.5c-4.5,0-7.5,3-7.5,7.5v82.6
		H98.9V324.7c0-34.5,27.8-63.1,63.1-63.1h22.5l27.8,41.3c2.3,3.8,6.8,4.5,10.5,2.3c0.8-0.8,1.5-1.5,2.3-2.3l28.5-41.3h22.5
		c23.3,0,45,12.8,56.3,33.8c1.5,3.8,6,5.3,9.8,3.8s5.3-6,3.8-9.8c0,0,0-0.8-0.8-0.8c-13.5-26.3-40.5-42-69.8-42H161.9
		c-43.5,0-78.1,35.3-78.1,78.1v117.1C83.9,446.4,86.9,449.4,91.4,449.4z M234.8,261.7l-15.8,24l-16.5-24H234.8z"/>
	<path d="M423.2,330c-1.5-2.3-3.8-3.8-6.8-3.8H252c-2.3,0-4.5,0.8-6,3c-13.5,19.5-14.3,44.3-3,64.6c-11.3,20.3-10.5,45,3,64.6
		c1.5,2.3,3.8,3,6,3h164.4c4.5,0,7.5-3,7.5-7.5c0-1.5-0.8-3-1.5-4.5c-10.5-15.8-10.5-35.3,0-51.1c2.3-3,2.3-6,0-9
		c-10.5-15.8-10.5-35.3,0-51.1C424,336,424.7,333,423.2,330z M296.3,341.3v10.5l-3.8-2.3c-2.3-0.8-4.5-0.8-6.8,0l-3.8,2.3v-10.5
		H296.3z M256.5,341.3h9.8v22.5c0,4.5,3.8,7.5,7.5,7.5c1.5,0,2.3,0,3-0.8l11.3-6l11.3,6c0.8,0.8,2.3,0.8,3.8,0.8
		c1.5,0,3-0.8,3.8-1.5c2.3-1.5,3.8-3.8,3.8-6v-22.5h92.3c-6,14.3-6,30.8,0,45H256.5C248.3,372,248.3,354.8,256.5,341.3z
		 M281.3,401.3h15v10.5l-3.8-2.3c-2.3-0.8-4.5-0.8-6.8,0l-3.8,2.3v-10.5H281.3z M403.7,446.4H256.5c-7.5-14.3-7.5-30.8,0-45h9.8
		v22.5c0,4.5,3.8,7.5,7.5,7.5c1.5,0,2.3,0,3-0.8l11.3-6l11.3,6c0.8,0.8,2.3,0.8,3.8,0.8c1.5,0,3-0.8,3.8-1.5c2.3-1.5,3.8-3.8,3.8-6
		v-22.5h92.3C398.4,415.6,398.4,431.4,403.7,446.4z"/>
	<path d="M252,119c-11.3,0-21.8,6.8-25.5,17.3h-18c-6-14.3-21.8-21-36-15.8c-14.3,6-21,21.8-15.8,36c6,14.3,21.8,21,36,15.8
		c9-3.8,15.8-12,17.3-21.8h14.3c2.3,15,15.8,26.3,30.8,24c15-2.3,26.3-15.8,24-30.8C277.6,129.5,265.6,119,252,119z M182.2,160.3
		c-7.5,0-13.5-6-13.5-13.5c0-7.5,6-13.5,13.5-13.5c7.5,0,13.5,6,13.5,13.5C196.5,154.3,190.5,160.3,182.2,160.3z M252,160.3
		c-7.5,0-13.5-6-13.5-13.5c0-7.5,6-13.5,13.5-13.5c7.5,0,13.5,6,13.5,13.5C265.6,154.3,259.5,160.3,252,160.3z"/>
	<path d="M122.9,110.8c-1.5,2.3-1.5,5.3-1.5,7.5v15.8c0,9.8,6,18,15,21c3,45.8,42.8,79.6,88.6,76.6c40.5-3,73.6-35.3,76.6-76.6
		c9-3,15-11.3,15-21v-15.8c0-3-0.8-5.3-1.5-8.3c12-11.3,12-30.8,0.8-42.8c-3.8-3.8-9-6.8-14.3-8.3c-1.5-10.5-9.8-19.5-20.3-22.5
		c-9-13.5-25.5-18.8-39.8-13.5c-11.3-12-30-12.8-42.8-1.5c-0.8,0.8-0.8,0.8-1.5,1.5c-6.8-1.5-13.5-1.5-19.5,0
		c-9,1.5-16.5,6.8-21,14.3c-4.5,1.5-9,3.8-12,7.5c-3.8,4.5-6.8,9-8.3,15c-15.8,3.8-26.3,20.3-21.8,36
		C115.4,101.8,118.4,106.3,122.9,110.8L122.9,110.8z M301.6,118.3v15.8c0,3.8-3.8,6.8-7.5,6.8c-4.5,0-7.5,3-7.5,7.5
		c0,37.5-30,67.6-67.6,67.6s-67.6-30-67.6-67.6c0-4.5-3.8-7.5-8.3-7.5c-3.8,0-6.8-3-6.8-6.8v-15.8c0,0,0,0,0-0.8
		c2.3,0.8,5.3,0.8,7.5,0.8c15,0,27-10.5,30-25.5c27.8-16.5,63.1-16.5,90.8,0c2.3,14.3,15,25.5,29.3,25.5
		C296.3,119,299.3,118.3,301.6,118.3L301.6,118.3z M143.9,74c2.3,0,4.5-0.8,5.3-2.3c1.5-1.5,2.3-3.8,2.3-6c0-3.8,1.5-7.5,4.5-10.5
		c2.3-3,4.5-3.8,5.3-3.8c3,0,6-1.5,6.8-4.5c3-5.3,7.5-9,13.5-9.8c4.5-0.8,9-0.8,13.5,1.5c3,2.3,8.3,2.3,10.5-1.5l0.8-0.8
		c3.8-7.5,13.5-9.8,20.3-6c2.3,1.5,4.5,3,6,6c2.3,3.8,6.8,5.3,10.5,3l0,0c16.5-9.8,26.3,6.8,27.8,8.3c0.8,1.5,3,3,5.3,3.8
		c6.8,0.8,12,7.5,11.3,14.3c0,2.3,0.8,3.8,2.3,6c1.5,1.5,3.8,2.3,5.3,2.3c8.3,0,15,6.8,15,15s-6.8,15-15,15c-8.3,0-15-6.8-15-15
		c0-3-1.5-5.3-3.8-6.8c-18-9.8-37.5-15.8-57.1-15.8s-39,6-56.3,15.8c-2.3,1.5-3.8,3.8-3.8,6.8c0,8.3-6.8,15-15,15
		c-8.3,0-15-6.8-15-15S135.7,74,143.9,74z"/>
</g>
</svg>
