<?xml version="1.0" encoding="utf-8"?>
<svg xmlns="http://www.w3.org/2000/svg" viewBox="0 0 466 477" fill="rgba(99, 102, 241, 1)" preserveAspectRatio="xMidYMid meet">
<g>
	<path d="M154.2,173.8c1.5-1.5,1.5-3.5,0-4.5s-3.5-1.5-4.5,0c-4,4-9.5,6-15,6c-5.5,0-11-2-15-6c-1.5-1.5-3.5-1.5-4.5,0
		c-1.5,1.5-1.5,3.5,0,4.5c5.5,5.5,12.5,8,20,8C142.7,181.8,148.7,179.3,154.2,173.8z"/>
	<path d="M116.2,145.8c3.5,0,6.5-2.5,7-6l0,0c0.5-4-2-7.5-6-8c-4-0.5-7.5,2-8,6c-0.5,4,2,7.5,6,8
		C115.7,145.8,116.2,145.8,116.2,145.8z M116.2,138.9C116.7,138.9,116.7,138.9,116.2,138.9C116.7,138.9,116.7,138.9,116.2,138.9
		c0.5,0.5,0,0.5,0,0.5V138.9L116.2,138.9z"/>
	<path d="M157.2,147.3c4,0,7-3,7-7s-3-7-7-7c-4,0-7,3-7,7C150.2,144.3,153.7,147.3,157.2,147.3z M157.2,139.9
		C157.7,139.9,157.7,139.9,157.2,139.9C157.7,140.4,157.2,140.4,157.2,139.9L157.2,139.9z"/>
	<path d="M356,134.4c-1.5-1.5-3.5-1.5-4.5,0c-4,4-9.5,6-15,6c-5.5,0-11-2-15-6c-1.5-1.5-3.5-1.5-4.5,0c-1.5,1.5-1.5,3.5,0,4.5
		c5.5,5.5,12.5,8,20,8c7.5,0,14.5-3,20-8C357.5,137.4,357.5,135.4,356,134.4z"/>
	<path d="M347.5,104.9c0.5,3.5,3.5,6,7,6c0.5,0,0.5,0,1,0c4-0.5,6.5-4,6-8c-0.5-4-4-6.5-8-6C349.5,97.4,347,100.9,347.5,104.9
		L347.5,104.9z M354,103.4C354.5,103.4,354.5,103.9,354,103.4c0.5,0.5,0.5,0.5,0,0.5C354,104.4,354,104.4,354,103.4
		C354,103.9,354,103.4,354,103.4z"/>
	<path d="M320.1,105.4c0-4-3-7-7-7c-4,0-7,3-7,7s3,7,7,7C317.1,111.9,320.1,108.9,320.1,105.4z M313.1,105.4
		C313.1,104.9,313.1,104.9,313.1,105.4c0.5-0.5,0.5,0,0.5,0H313.1z"/>
	<path d="M429.5,224.8c-2.5-17-17-30.5-35-30.5H380v-19.5c0-0.5,0-0.5,0-1c31-12,53.5-42,53.5-77.4c0-45.5-37.5-82.4-82.9-82.4
		s-82.9,37-82.9,82.9c0,38,25.5,69.5,60,79.4v18h-23c-12.5,0-23.5,6.5-29.5,16c-4.5,1-9.5,2-15,3.5c-9.5-9.5-31-12.5-50-13.5
		l-11-77.9c0,0,0,0,0-0.5c-5-40.5-40-72.4-81.9-72.4c-41,0-75.4,29.5-81.9,70l0,0l0,0l-12.5,89.9c-0.5,2,1,3.5,2.5,3.5l57,10.5h0.5
		c0.5,0,1.5,0,2-0.5c0.5-0.5,1-1.5,1-2.5l0.5-11c1.5,0.5,2.5,1,4,1.5v18.5H75.7c-19.5,0-35,16-35,35v161.4c0,2,1.5,3.5,3.5,3.5
		c2,0,3.5-1.5,3.5-3.5V285.3c3,9.5,7.5,21.5,14,34c18.5,35.5,44,57.5,74.4,64c12,2.5,23,3.5,32.5,3.5c10,0,18.5-1.5,26.5-3v62.5
		H67.7c-2,0-3.5,1.5-3.5,3.5s1.5,3.5,3.5,3.5h129.9c2,0,3.5-1.5,3.5-3.5v-68c24.5-8.5,34-24,34.5-25c0.5-1,0.5-2.5-0.5-4l-3-3.5
		c0.5,0,0.5,0,1,0c5-3,30.5-17.5,29-29c-0.5-4.5-1-9-1.5-12.5c3,1,6,2,9,3.5v103.9l0,0l0,0l1,45.5c0,2,1.5,3,3.5,3l0,0
		c2,0,3.5-1.5,3-3.5l-1-42h146.4l1,29c0,2,1.5,3,3.5,3l0,0c2,0,3-1.5,3-3.5l-1-30c0.5-0.5,1-1.5,1-2v-58c4-3.5,7.5-7.5,10-12.5
		C457,311.7,439.5,252.3,429.5,224.8z M274.6,96.9c0-28,15-52,37-65.5c10.5,35,43,59.5,79.4,59.5c3.5,0,7,0,10.5-0.5c2,0,3-2,3-3.5
		c0-2-2-3-3.5-3c-3,0.5-6.5,0.5-10,0.5c-34,0-64-23-73.4-55.5c0,0,0,0,0-0.5c10-5,21.5-7.5,33-7.5c42,0,75.9,34,75.9,75.9
		s-34,75.9-75.9,75.9C308.6,172.8,274.6,138.9,274.6,96.9z M334.6,177.8c5,1,10.5,1.5,16,1.5c8,0,15.5-1,23-3.5v18.5h-39
		C334.6,194.3,334.6,177.8,334.6,177.8z M304.6,200.8h89.9c9.5,0,18,4.5,23,12c0,0.5,0.5,1,0.5,1.5c1,2,2.5,6.5,4.5,12.5
		c2,5.5,4.5,13,6.5,20.5c8.5,29,16.5,70,4,93.4c-1,2.5-2.5,4.5-4,6c-2,2.5-4,4.5-6.5,6c-4,3-8.5,4.5-14.5,6c-18.5,3.5-34.5,1-47.5-8
		c-22-15.5-29.5-44.5-30.5-50.5l9-16.5l1.5-2.5l0,0c9.5,11,36.5,39.5,52.5,38c4-0.5,7.5-3,10-7c13-23.5-10-61-11-62.5
		c0-0.5-0.5-0.5-1-1c-1-1-2.5-1-4,0c-1.5,1-2,3-1,4.5c0,0.5,22,35.5,11,56c-1,2-2.5,3-4.5,3.5c-13,1.5-40-27.5-50-39
		c-1.5-3-9.5-17.5-20-22.5c4-11,8.5-22,13-31.5c0.5-1,0.5-1.5,0-2.5c-0.5-1-1-1.5-2-2l-2.5-1c-13.5-5.5-22-9.5-46-5.5
		C290.6,203.8,297.1,200.8,304.6,200.8z M255.6,320.7c0.5,5-13,15.5-25.5,22.5c-0.5,0.5-1,1-1.5,1.5l-14-17.5c1-3,2.5-6,4.5-7.5
		c4-3,6-9,8.5-16c0-0.5,0.5-1,0.5-1.5c0.5-1,1-2.5,1-3.5c0.5-1,1-2,1-3.5c2.5-6.5,5.5-12,10.5-14.5c1.5-1,2.5-0.5,3,0
		c1.5,0.5,5,4,8,17.5c0.5,1,0.5,2.5,1,3.5c0,1,0.5,2.5,0.5,3.5C254.1,309.2,255.1,314.2,255.6,320.7z M142.7,219.8l26.5-1.5
		c-1.5,3.5-2.5,7-4,11.5h-22.5V219.8L142.7,219.8z M256.1,219.8l-35.5,76.9v0.5c-2,1-4,2-5.5,3.5c-2.5-0.5-7.5-1.5-14-2
		c-2,0-4.5-0.5-6.5-0.5c-15-1.5-34-1.5-46,4c6.5-23.5,14.5-47.5,21-65.5c1-2,1.5-4.5,2.5-6.5c1.5-4.5,3-8.5,4.5-12c1-2.5,2-5,2.5-7
		c0.5-1.5,1-3,1.5-4c6-0.5,14.5-0.5,24-0.5c2,0,4.5,0,6.5,0.5C229.6,208.3,249.6,211.3,256.1,219.8z M201.2,305.2
		c6,0.5,11,1.5,14.5,2c1,0,2.5,0,3-1c0.5-0.5,1-0.5,1.5-1c-1.5,4-3,8-4.5,9c-3,2-5,5.5-6.5,9c-0.5,0-1,0-1,0.5c0,0-2.5,2-6.5,4
		C201.2,327.7,201.2,305.2,201.2,305.2z M247.1,274.3c-2-1-5-2-9,0c-2,1-3.5,2.5-5,4l26.5-57.5h0.5c4-1,8-2,11.5-3
		c3-0.5,5.5-1,8-1.5c27-5.5,35-2,49.5,4c-4,9-8,19-12,29.5c-1,0-1.5,0-2.5,0c-11,0.5-29.5,6-38,15c-3,3-5,6-5,10s1.5,7.5,5,10.5
		c5,4.5,14,7,26,7.5c-3.5,10-6,18-7,22.5c-4-2-11-5.5-18.5-9c-2-1-4.5-2-6.5-2.5c-3.5-1.5-7-2.5-10.5-3.5
		C256.1,285.7,252.1,277.3,247.1,274.3z M311.1,286.2c-0.5,0-1.5,0-2,0c-0.5,0-1,0-1,0c-1,0-2.5,0-3.5,0c-13.5-0.5-26.5-4-26.5-11.5
		c0-8,22.5-17,36.5-18c0,0,0,0,0.5,0h0.5c1,0,1.5,0,2.5,0.5c1,0.5,2,0.5,3,1.5c6.5,3.5,13,13,16,18l-9,17
		C324.6,289.7,319.6,286.2,311.1,286.2z M178.2,200.8c-1.5,0-2.5,1-3,2c0,0-1.5,3.5-3.5,8.5l-29,2v-2c26.5-8.5,47-30.5,54.5-57.5
		l6.5,46.5C190.2,199.8,179.2,200.8,178.2,200.8z M192.2,117.9c-30-12.5-33.5-44-33.5-45.5c0-0.5-0.5-1.5-1-2c0-0.5,0.5-1.5,0.5-2
		C175.7,79.4,187.7,97.4,192.2,117.9z M79.7,216.3l-50-9l12.5-86.4l0,0c6-37.5,37.5-64.5,75.4-64.5c13,0,25,3,35.5,9
		c-9.5,32-39.5,54-72.9,54c-3.5,0-6.5,0-10-0.5c-2-0.5-3.5,1-3.5,3s1,3.5,3,3.5c3.5,0.5,7,0.5,10.5,0.5c1.5,0,3,0,4.5,0L79.7,216.3z
		 M87.7,202.8h-0.5l4-77.4c27-3.5,50.5-20.5,62.5-44.5c3,12,12.5,35.5,39.5,45c0,2.5,0.5,5,0.5,7.5c0,42-34,75.9-75.9,75.9
		C107.2,208.8,97.2,206.8,87.7,202.8z M97.2,212.8c6.5,1.5,13.5,2.5,20,2.5c6.5,0,13-1,19-2.5v16.5h-39
		C97.2,229.3,97.2,212.8,97.2,212.8z M75.7,236.3h86.9c-7.5,20-16,47-22.5,72.4c-0.5,1.5,0.5,3,1.5,3.5c1.5,0.5,3,0.5,4-0.5
		c8-8.5,30.5-9,49-7.5v26.5c-15,7-38.5,15-54,1c-25-22.5-35-53-35-53c-0.5-1.5-2.5-2.5-4-2c-1,0.5-2,1.5-2,2.5c0,0.5,0,1,0,1.5
		c0.5,1.5,11,32.5,37,56c17.5,15.5,42,9,58.5,1.5c2.5-1,4.5-2,6.5-3c2-1,4-2,5.5-3c1-0.5,1.5-1,2.5-1.5l1,1.5l3,3.5l4.5,5.5l11.5,14
		c-3,4-11.5,13.5-27.5,19.5c-2,1-4.5,1.5-6.5,2c-14,4-32.5,5.5-57.5,0c-64.5-14-85.4-96.9-87.9-108.9c0-1-0.5-1.5-0.5-1.5
		c0-1-1-2-2-2.5C47.8,248.8,60.3,236.3,75.7,236.3z M423.5,410.2c-0.5,0.5-0.5,1-1,1H276.1v-97.9c7.5,3.5,14.5,7,19,9.5
		c0.5,0.5,1,0.5,1.5,0.5c0.5,0,1,0,1,0c1-0.5,1.5-1,2-2c0-0.5,3.5-12,9-28c14,0,15,8,15,8l0,0l0,0c0.5,1.5,6.5,37,33.5,56
		c10.5,7,22.5,10.5,36,10.5c5.5,0,11-0.5,17-2c5-1,9-2.5,13-4.5L423.5,410.2L423.5,410.2z"/>
</g>
</svg>
