<svg id="owl" xmlns="http://www.w3.org/2000/svg" viewBox="0 0 2048 2048"><defs><style>.cls-1{fill:#1e2522;}.cls-2{fill:#e6e6e6;}.cls-3{fill:#fac600;opacity:0.82;}.cls-4{fill:#f2f2f2;}.cls-5{fill:#009245;}</style></defs><title>bib-stonava-emblem</title><path id="body" class="cls-1" d="M1597.6,1167.17c0,316.2-256.33,572.52-572.52,572.52s-572.51-256.32-572.51-572.52a578.53,578.53,0,0,1,3.18-60.64A569.23,569.23,0,0,1,564.36,827.27q8-10.85,16.51-21.29A361.93,361.93,0,0,1,541.13,677.4a366.79,366.79,0,0,1-2.36-41.63,363,363,0,0,1,34.48-154.93q6.46-11.83,12.4-24A598.62,598.62,0,0,0,638,294.23a209.89,209.89,0,0,0,16.88,70.33,161.93,161.93,0,0,1,30.6-73.15q2.57-3.44,5.31-6.71a159.83,159.83,0,0,1,12.5-13.39l.95-.89a60.7,60.7,0,0,0,11.06,28.78h0a61,61,0,0,0,15.74,15.23,2.11,2.11,0,0,0,.27.18c.51.34,1,.67,1.54,1q8.15,3.67,16.42,7.07a542.52,542.52,0,0,0,118.54,33.65l.08,0q23.31,4.91,47.32,7.81,4.53.54,9.07,1a64,64,0,0,1,50.2,46.76.13.13,0,0,1,0,.06,62.85,62.85,0,0,1,3.49-9.36h0a63.94,63.94,0,0,1,49.21-36.42h0l3.4-.3c.84-.07,1.67-.15,2.51-.24h0c1.35-.12,2.7-.25,4-.39l4.63-.49a544,544,0,0,0,85.58-16.4,542.12,542.12,0,0,0,69.1-24.24h0A129.85,129.85,0,0,0,1254.78,295h0a130.32,130.32,0,0,0,27.11-32.88,129.62,129.62,0,0,0,27,63l0,0q1.93,2.44,4,4.78l.09.11a577.5,577.5,0,0,1,109.11,206,455.54,455.54,0,0,1,22,195.9q-2.07,19.77-5.86,39c.69.7,1.36,1.41,2,2.12A570.5,570.5,0,0,1,1597.6,1167.17Z"/><circle id="under-glass_left" data-name="under-glass left" class="cls-2" cx="736.78" cy="746.26" r="170.66"/><circle id="under-glass_right" data-name="under-glass right" class="cls-2" cx="1131.26" cy="681.77" r="170.66"/><path id="beak" class="cls-3" d="M1033.93,861.86c0,17.3-19.54,38.19-25.64,54.18a239.88,239.88,0,0,0-15.64,80.68C935,994.85,869,915.43,883.14,856.48,901.12,781.54,1033.93,776.47,1033.93,861.86Z"/><path id="book" class="cls-2" d="M1460.49,1197.38A226,226,0,0,1,1316.36,1249q-8.89,0-17.62-.68h0a6.28,6.28,0,0,1-.75,0,8.88,8.88,0,0,1-2.27-.29h0a9,9,0,0,1-.38-17.27l.08,0,1-.24h0a226.21,226.21,0,0,0,91.9-46.66,228,228,0,0,1-143.36,19,10.27,10.27,0,0,1-3-.61h0a10.2,10.2,0,0,1-.47-19h0a10.09,10.09,0,0,1,4-.8h.22a226.19,226.19,0,0,0,106.45-53.64,335.58,335.58,0,0,1-162.89,15.63,23,23,0,0,1-5.14-.82,23.27,23.27,0,0,1-2.84-43.83c.69-.29,1.4-.55,2.12-.78h0a23.26,23.26,0,0,1,4.11-.87c.74-.09,1.5-.14,2.26-.16,103.88-23.54,189.36-95.55,231.39-191q5.17-11.73,9.45-23.92c.28-.79.56-1.58.83-2.38h0q-1.94-28.22-3.62-56.49-.49-8.07-.94-16.15-7.2,4.11-14.38,8.26-12.66,7.34-25.25,14.78l-2.94,1.75a2971.08,2971.08,0,0,0-248.09,164.58q-23.48,17.33-46.58,35.1-9.18,7-18.29,14.17-19.11,14.93-38,30.17-3.18,2.55-6.34,5.13-5.6,4.53-11.16,9.1l-.53.44-5.67,4.67q-6.37-3-12.78-6.06-16.27-7.67-32.67-15.13c-.53-.25-1.06-.49-1.6-.72q-45.6-20.77-92-40h0q-14-5.8-28.08-11.48-124.17-50-253.69-88.93Q564,926.41,539,919.4q2,34.74,4.37,69.38,2.4,35.29,5.19,70.5h0q4.36,4.56,8.9,9l1,1,1,1,.19.17.7.67.38.36,1.08,1,.45.41.43.41c1.08,1,2.18,2,3.28,3l2.27,2,2,1.73,1.17,1c.67.58,1.33,1.16,2,1.73.52.45,1,.89,1.58,1.33l.45.38.2.17.07.06.33.28c1.26,1,2.54,2.09,3.82,3.13s2.35,1.89,3.53,2.81l.12.1.1.08.43.34.93.72c.59.47,1.18.93,1.78,1.38l1.79,1.37.37.28.74.56,2.58,1.91.4.29c.68.51,1.37,1,2.06,1.49.51.38,1,.74,1.54,1.11.83.59,1.66,1.18,2.5,1.76q2.9,2,5.85,4l2.1,1.39q5.29,3.48,10.73,6.76l1.36.82,1.37.81,2.74,1.6q6.87,4,13.95,7.63l1.42.73,1.42.72,3.71,1.84.57.27,1.44.7c2.87,1.38,5.77,2.73,8.7,4,1,.44,2,.87,2.93,1.29l2.94,1.26c1,.42,2,.83,3,1.23q3,1.23,6,2.38l.21.08c.92.36,1.85.72,2.79,1.07,2,.76,4,1.5,6,2.22l3,1.06,3.34,1.13.38.13.69.22c1,.34,2,.66,3.05,1l.08,0,.12,0h0l1.2.38,1.49.46.23.07.62.19.1,0,.38.12.57.17.57.17.36.11.45.13a6.32,6.32,0,0,0,.62.18l.73.22.4.12.16.05h.17s0,0,0,0h.1l.07,0h0l0,0,.15,0,.7.2,2.76.77.38.11,2.54.69.33.09.28.07.1,0,3.36.87,2.76.68.19,0,.77.19.2,0,.2.05.09,0,.1,0h0c.85.21,1.69.41,2.54.6l.4.1a3,3,0,0,1,.41.09l2.58.58H718l.27.06.13,0,.14,0,3.2.68,3.21.65c2.33.45,4.67.89,7,1.3l3.53.59,3.07.49,4,.59,1,.14q2.73.38,5.46.71c1.82.22,3.65.42,5.48.62q6.16.65,12.38,1.06,8.54.59,17.17.72h0l.73-.08.73,0c.45,0,.89,0,1.34,0s1.09,0,1.63,0l.84.07h0l.38,0,.41,0a26.19,26.19,0,0,1,9,49.17,25,25,0,0,1-6,2.29,325.5,325.5,0,0,1-39.58,11.85c-1,.24-1.92.46-2.89.66q-4.7,1.05-9.45,2-9.5,1.85-19.17,3.12-4.85.65-9.72,1.15-6,.63-12.12,1-11.22.76-22.65.76h-1.94a330.69,330.69,0,0,0,64.28,20.7h0a11.71,11.71,0,0,1,1.78.37h0a13.06,13.06,0,0,1,4.22,23l0,0a12.67,12.67,0,0,1-4.75,2.23h0c-1.25.57-2.5,1.13-3.76,1.67l-.41.18c-.95.41-1.91.82-2.87,1.21-.46.2-.92.39-1.39.57l-.54.22q-1.34.55-2.7,1.08c-1.08.43-2.16.84-3.25,1.24l-1,.36-1.57.57-1.57.55-.59.21c-1.07.37-2.14.74-3.21,1.09l-1.78.58c-1,.31-1.94.62-2.91.91l-.32.1c-1.26.39-2.52.76-3.79,1.12l-1.17.34-2.9.79-2.33.6-1.89.47-.19,0-2.24.54-.17,0c-.86.2-1.73.4-2.6.58l-.76.17c-1.1.24-2.2.47-3.31.69l-.35.07-.75.14-.37.07-2.11.41h0l-2.13.38-1.06.19-2.14.35-1.07.17h0c-1.43.23-2.86.43-4.3.63l-2.17.28h0c-1.28.16-2.56.32-3.85.45s-2.59.27-3.88.39c-1.73.16-3.47.29-5.21.41q-7.74.52-15.62.53-7.17,0-14.23-.44-4.25-.25-8.46-.68a225.08,225.08,0,0,0,57.37,23.78,8.75,8.75,0,0,1,1.69.44c1.53.39,3.07.76,4.61,1.11l2,.45c-2.14-.46-4.26-.94-6.38-1.48l.15.07,0,0h0c.2.07.39.15.59.24l.52.26c.23.13.46.27.68.42l.33.23a7.2,7.2,0,0,1,1,.94l.38.42,0,0,.36.48a7.37,7.37,0,0,1,.65,1.08,7.55,7.55,0,0,1,.48,1.17,4.13,4.13,0,0,1,.15.5,7.45,7.45,0,0,1,.21,1.18c0,.08,0,.16,0,.23,0,.22,0,.45,0,.67a8.19,8.19,0,0,1-.43,2.63,2.83,2.83,0,0,1-.11.31,1.88,1.88,0,0,1-.12.3,4.9,4.9,0,0,1-.24.52.34.34,0,0,1-.06.12,3.72,3.72,0,0,1-.19.34,2.39,2.39,0,0,1-.13.21c-.09.15-.19.29-.29.43a.47.47,0,0,1-.09.12c-.09.13-.2.26-.31.39a7,7,0,0,1-.59.63l-.31.28-.21.18-.27.21-.23.17-.32.21a5.24,5.24,0,0,1-.73.41l-.46.22a4.81,4.81,0,0,1-.53.2l-.1,0h0l-.12,0-.14.05a8.47,8.47,0,0,1-2.37.49q-5.46,1.1-11,1.9c-.91.14-1.82.27-2.74.39s-1.83.25-2.75.36l-2.77.32-2.58.27-2.46.23c-.64.06-1.28.12-1.92.16l-2.16.16c-.64.06-1.27.1-1.91.13l-.35,0c-.85.06-1.71.11-2.57.14l-2.82.12q-4.23.17-8.51.16-7.77,0-15.41-.52c-1-.06-1.92-.14-2.87-.21l-2-.17-1.95-.18c-1.38-.13-2.76-.28-4.13-.43-1.77-.2-3.54-.43-5.31-.68l-2.25-.33-.29,0-.56-.09-.21,0-2.89-.47-.2,0-.27,0-.56-.09-.66-.12-1.15-.2-1.15-.21-.08,0c-.5-.08-1-.19-1.53-.28-1.29-.25-2.59-.51-3.88-.79l-.07,0-.46-.1a1.5,1.5,0,0,1-.29-.06c-.43-.08-.87-.18-1.29-.28l-.3-.07c-1.13-.24-2.25-.5-3.37-.78l-1.19-.29c-1.94-.46-3.88-1-5.8-1.49q7.85,65.28,16.95,130.18,16.49,4.24,32.9,8.7l10.37,2.83,3.49,1,3,.82,1.88.52,8.7,2.43,2.35.66,2.7.77q5,1.43,10.07,2.87l.29.08.29.08h0l.16,0a.55.55,0,0,1,.17,0l.48.14h0l.15,0,.34.1.51.15c.83.23,1.65.47,2.48.72l1.2.34.23.07,1,.29c.22.06.43.11.64.18l.23.06h0l.9.26.47.14,4.4,1.28,4,1.16c2.13.62,4.25,1.25,6.38,1.89.87.25,1.73.5,2.6.77l.09,0,.07,0,.65.2.66.19,4.47,1.34,1.68.5,3.12.94,2.15.64,3,.93c.39.11.79.23,1.18.36s.94.28,1.4.42l1.36.42c3.05.92,6.1,1.86,9.14,2.8l.48.15.3.09.44.14,2.18.67,2.66.83,1.42.44q3.62,1.11,7.21,2.25l.7.22,1.58.5,2.05.65c1,.3,1.93.6,2.9.92,2.31.72,4.61,1.46,6.91,2.2l4.25,1.36,2,.64q4.56,1.45,9.11,3l2.88.94,1.72.56,3.43,1.13,5.92,2a2.29,2.29,0,0,1,.37.12l1,.34.42.15c.68.21,1.35.43,2,.66.17.06.34.11.51.18l.4.13.41.13,1.09.37.69.23c1.27.41,2.53.84,3.79,1.27l2.36.79a2.3,2.3,0,0,1,.34.12c2,.68,4.09,1.37,6.14,2.07h.09l.15.06.77.26q5.46,1.84,10.92,3.73l1,.35,1.15.4c.73.24,1.45.49,2.17.75l1.42.49,3.88,1.35c2.47.86,4.93,1.71,7.39,2.58q6.35,2.22,12.67,4.47l1.24.44,9.92,3.56q3.81,1.37,7.6,2.76c2.29.82,4.57,1.66,6.85,2.5a2.3,2.3,0,0,1,.34.12l.12,0,.55.2.12,0,.34.13.21.08,1.79.65,1.4.52,1.06.4c1,.35,2,.72,3,1.09q2.22.81,4.43,1.65l5.58,2.08c.74.26,1.48.54,2.22.83s1.76.65,2.63,1c.26.09.53.19.79.3q1.68.61,3.36,1.26l3.23,1.21,1,.39,3,1.14,8.18,3.13s0,0,.07,0q4.08,1.56,8.14,3.15l6.27,2.43,6.91,2.71q3,1.15,5.93,2.34l2.94,1.16,2.08.83c.3.11.59.23.89.36q3.5,1.38,7,2.79l.52.2c.46.18.92.36,1.38.56l3,1.22.79.32c1,.42,2.11.84,3.16,1.28.45.17.89.35,1.33.54.79.3,1.56.62,2.34,1l0,0a.13.13,0,0,1,.1,0l6.75,2.75,0,0,.62.25,7,2.87,3.6,1.49,3.39,1.41q5,2.07,10,4.17L1001,1605l.71.3.55.23.16.07.31.14c1.27.52,2.54,1.06,3.81,1.6l3.57,1.52,6.27,2.68c2.14.91,4.29,1.83,6.42,2.76l1.16.5q2.61,1.11,5.2,2.25l.15.07,3.44,1.49,1.8.79q2.24,1,4.46,2l2.68,1.17,1.45.64,1.24.54.9.4,2.62,1.16,2.8,1.25,4.59,2,.93.42,2,.88,4.32,1.94,5.45,2.45,1.27.57q4.39,2,8.78,4l3.6,1.64a2971.51,2971.51,0,0,1,393.94-267.24l0,0h0l0,0,7-4Q1470.45,1283.65,1460.49,1197.38ZM702,1328q3.1.51,6.24.94Q705.06,1328.51,702,1328Z"/><g id="eye_left" data-name="eye left"><circle id="iris_left" data-name="iris left" cx="790.82" cy="845.11" r="43.61"/><circle id="pupil_left" data-name="pupil left" class="cls-4" cx="803.61" cy="865.09" r="11.63"/></g><g id="eye_right" data-name="eye right"><circle id="iris_right" data-name="iris right" cx="1173.89" cy="792.82" r="43.61"/><circle id="pupil_right" data-name="pupil right" class="cls-4" cx="1173.8" cy="818.81" r="11.63"/></g><path class="cls-5" d="M1132.36,527.68a154.83,154.83,0,1,0,154.82,154.83A154.83,154.83,0,0,0,1132.36,527.68Zm-1-19.83A174.66,174.66,0,1,1,998.53,795.94q-4-4.73-7.73-9.73a173.62,173.62,0,0,1-27.62-56.4,57.06,57.06,0,0,0-52,6.05q.34,5.53.35,11.14A174.46,174.46,0,0,1,901,807q-1.82,4.95-3.92,9.77a174.69,174.69,0,1,1,11.61-101.38A57.07,57.07,0,0,1,959,710.88a174.77,174.77,0,0,1,172.37-203ZM890.78,747.44A154.83,154.83,0,1,0,736,902.27,154.81,154.81,0,0,0,890.78,747.44Z"/></svg>