<svg xmlns="http://www.w3.org/2000/svg" xmlns:xlink="http://www.w3.org/1999/xlink" viewBox="0 0 1754.24 401"><defs><linearGradient id="linear-gradient" x1="903.2" y1="401" x2="903.2" y2="303.38" gradientTransform="matrix(1, 0, 0.56, 1, -224.62, 0)" gradientUnits="userSpaceOnUse"><stop offset="0" stop-color="#ffdebf" stop-opacity="0"/><stop offset="0.25" stop-color="#c8a98d" stop-opacity="0.1"/><stop offset="0.7" stop-color="#765442" stop-opacity="0.3"/><stop offset="0.9" stop-color="#402515" stop-opacity="0.4"/><stop offset="1" stop-color="#2b0900" stop-opacity="0.5"/></linearGradient></defs><title>Asset 1</title><g id="Layer_2" data-name="Layer 2"><g id="bookshelf"><g id="shelf"><polygon id="shadow" points="1754.24 401 55.32 401 0.26 303.38 1699.18 303.38 1754.24 401" fill="url(#linear-gradient)"/><g id="top"><rect id="b" y="289.5" width="1701.61" height="26.87" rx="5" ry="5" fill="#9b6a3d"/><rect id="t" y="302.49" width="1701.61" height="13.43" rx="3.54" ry="3.54" opacity="0.26"/></g><g id="supports"><rect id="right" x="1388.15" y="309.43" width="31.35" height="31.35" rx="6" ry="6" fill="#9b6a3d"/><rect id="left" x="282.11" y="309.43" width="31.35" height="31.35" rx="6" ry="6" fill="#9b6a3d"/></g></g><g id="book-2"><rect id="frame" x="144.8" y="62.5" width="51" height="227" rx="6" ry="6" fill="#fcbab1"/><rect id="square" x="157.66" y="119.5" width="24" height="108" rx="3" ry="3" fill="#fff" opacity="0.48"/></g><g id="book-1"><rect id="frame-2" data-name="frame" x="64.8" width="80" height="290" rx="5" ry="5" fill="#60bab1"/><rect id="line-b-1" x="102.16" y="234.93" width="5.14" height="80" transform="translate(379.66 170.2) rotate(90)" fill="#fff"/><rect id="line-b-2" x="102.16" y="227.93" width="5.14" height="80" transform="translate(372.66 163.2) rotate(90)" fill="#fff"/><rect id="line-b-3" x="102.16" y="-17.07" width="5.14" height="80" transform="translate(127.66 -81.8) rotate(90)" fill="#fff"/><rect id="line-b-4" x="102.16" y="-24.07" width="5.14" height="80" transform="translate(120.66 -88.8) rotate(90)" fill="#fff"/></g><g id="book-3"><rect x="195.8" y="39.5" width="44" height="250" rx="5" ry="5" fill="#fcba5e"/><rect id="square-2" data-name="square" x="209.3" y="42" width="17" height="44" transform="translate(153.8 281.8) rotate(-90)" fill="#fff" opacity="0.48"/><rect id="square-3" data-name="square" x="209.3" y="246.5" width="17" height="44" transform="translate(-50.7 486.3) rotate(-90)" fill="#fff" opacity="0.48"/></g><path d="M347.42,277.45l-51.79,11.93a5,5,0,0,1-6-3.75L241.44,77.54a5,5,0,0,1,3.76-6L297,59.62a5,5,0,0,1,6,3.75l48.18,208.09A5,5,0,0,1,347.42,277.45Z" fill="#9fbcff"/><path id="square-4" data-name="square" d="M286.33,89.73l-4,.94c-.36.09-.52.77-.34,1.52L292.5,138.5c.17.75.6,1.29,1,1.21l4-1c.36-.09.52-.76.35-1.52L287.3,90.93C287.13,90.18,286.69,89.64,286.33,89.73Z" fill="#fff" opacity="0.48"/><path id="square-5" data-name="square" d="M276.55,90.64l-13.7,3.23a2.33,2.33,0,0,0-1.72,2.8L279,173.77a2.31,2.31,0,0,0,2.77,1.74l13.71-3.23a2.34,2.34,0,0,0,1.72-2.8l-17.88-77.1A2.32,2.32,0,0,0,276.55,90.64Z" fill="#fff" opacity="0.48"/></g></g></svg>